<?xml version="1.0" encoding="UTF-8" standalone="no"?>
<svg
   xmlns:dc="http://purl.org/dc/elements/1.1/"
   xmlns:cc="http://creativecommons.org/ns#"
   xmlns:rdf="http://www.w3.org/1999/02/22-rdf-syntax-ns#"
   xmlns:svg="http://www.w3.org/2000/svg"
   xmlns="http://www.w3.org/2000/svg"
   viewBox="0 0 393.07086 128.50394"
   height="128.50394"
   width="393.07086"
   xml:space="preserve"
   id="svg2"
   version="1.1"><metadata
     id="metadata8"><rdf:RDF><cc:Work
         rdf:about=""><dc:format>image/svg+xml</dc:format><dc:type
           rdf:resource="http://purl.org/dc/dcmitype/StillImage" /></cc:Work></rdf:RDF></metadata><defs
     id="defs6"><linearGradient
       id="linearGradient62"
       spreadMethod="pad"
       gradientTransform="matrix(18.343025,0.0397058,0.160107,24.89334,28.852513,43.502515)"
       gradientUnits="userSpaceOnUse"
       y2="0"
       x2="1"
       y1="0"
       x1="0"><stop
         id="stop52"
         offset="0"
         style="stop-opacity:1;stop-color:#d8a570" /><stop
         id="stop54"
         offset="0.108"
         style="stop-opacity:1;stop-color:#d8a570" /><stop
         id="stop56"
         offset="0.165"
         style="stop-opacity:1;stop-color:#ffeed0" /><stop
         id="stop58"
         offset="0.988"
         style="stop-opacity:1;stop-color:#d8a570" /><stop
         id="stop60"
         offset="1"
         style="stop-opacity:1;stop-color:#d8a570" /></linearGradient><linearGradient
       id="linearGradient86"
       spreadMethod="pad"
       gradientTransform="matrix(18.343025,0.0397058,0.160107,24.89334,52.893337,43.502515)"
       gradientUnits="userSpaceOnUse"
       y2="0"
       x2="1"
       y1="0"
       x1="0"><stop
         id="stop76"
         offset="0"
         style="stop-opacity:1;stop-color:#d8a570" /><stop
         id="stop78"
         offset="0.108"
         style="stop-opacity:1;stop-color:#d8a570" /><stop
         id="stop80"
         offset="0.165"
         style="stop-opacity:1;stop-color:#ffeed0" /><stop
         id="stop82"
         offset="0.988"
         style="stop-opacity:1;stop-color:#d8a570" /><stop
         id="stop84"
         offset="1"
         style="stop-opacity:1;stop-color:#d8a570" /></linearGradient><linearGradient
       id="linearGradient106"
       spreadMethod="pad"
       gradientTransform="matrix(17.801983,-0.0584522,-0.0199514,19.386988,29.158476,49.206875)"
       gradientUnits="userSpaceOnUse"
       y2="0"
       x2="1"
       y1="0"
       x1="0"><stop
         id="stop100"
         offset="0"
         style="stop-opacity:1;stop-color:#ffc580" /><stop
         id="stop102"
         offset="0.858"
         style="stop-opacity:1;stop-color:#ffc580" /><stop
         id="stop104"
         offset="1"
         style="stop-opacity:1;stop-color:#be773d" /></linearGradient><linearGradient
       id="linearGradient126"
       spreadMethod="pad"
       gradientTransform="matrix(17.801983,-0.0584522,-0.0199514,19.386988,53.694987,49.206875)"
       gradientUnits="userSpaceOnUse"
       y2="0"
       x2="1"
       y1="0"
       x1="0"><stop
         id="stop120"
         offset="0"
         style="stop-opacity:1;stop-color:#ffc580" /><stop
         id="stop122"
         offset="0.858"
         style="stop-opacity:1;stop-color:#ffc580" /><stop
         id="stop124"
         offset="1"
         style="stop-opacity:1;stop-color:#be773d" /></linearGradient></defs><g
     transform="matrix(1.3333333,0,0,1.3333333,0,5.8792651e-6)"
     id="g10"><g
       id="g12"><g
         transform="scale(0.951904,1)"
         id="g14"><path
           id="path16"
           style="fill:none;stroke:#01373e;stroke-width:0.78109801;stroke-linecap:round;stroke-linejoin:miter;stroke-miterlimit:10;stroke-dasharray:none;stroke-opacity:1"
           d="M 23.071,72.605 51.71,72.59" /></g><g
         transform="scale(0.951904,1)"
         id="g18"><path
           id="path20"
           style="fill:none;stroke:#01373e;stroke-width:0.78109801;stroke-linecap:round;stroke-linejoin:miter;stroke-miterlimit:10;stroke-dasharray:none;stroke-opacity:1"
           d="M 19.193,72.629 H 17.916" /></g><g
         transform="scale(0.951904,1)"
         id="g22"><path
           id="path24"
           style="fill:none;stroke:#01373e;stroke-width:0.78109801;stroke-linecap:round;stroke-linejoin:miter;stroke-miterlimit:10;stroke-dasharray:none;stroke-opacity:1"
           d="m 15.364,72.605 h 1.354" /></g><g
         transform="scale(0.951904,1)"
         id="g26"><path
           id="path28"
           style="fill:none;stroke:#01373e;stroke-width:0.78109801;stroke-linecap:round;stroke-linejoin:miter;stroke-miterlimit:10;stroke-dasharray:none;stroke-opacity:1"
           d="M 54.016,72.59 H 82.618" /></g><g
         transform="scale(0.951904,1)"
         id="g30"><path
           id="path32"
           style="fill:none;stroke:#01373e;stroke-width:0.78109801;stroke-linecap:round;stroke-linejoin:miter;stroke-miterlimit:10;stroke-dasharray:none;stroke-opacity:1"
           d="m 85.741,72.59 h 3.422" /></g><g
         transform="scale(0.951904,1)"
         id="g34"><path
           id="path36"
           style="fill:none;stroke:#01373e;stroke-width:0.78109801;stroke-linecap:round;stroke-linejoin:miter;stroke-miterlimit:10;stroke-dasharray:none;stroke-opacity:1"
           d="m 91.896,72.59 h 0.977" /></g><g
         transform="scale(0.951904,1)"
         id="g38"><path
           id="path40"
           style="fill:none;stroke:#01373e;stroke-width:0.78109801;stroke-linecap:round;stroke-linejoin:miter;stroke-miterlimit:10;stroke-dasharray:none;stroke-opacity:1"
           d="m 12.811,72.629 h 0.612" /></g><g
         id="g42"><g
           id="g44"><g
             id="g50"><path
               id="path64"
               style="fill:url(#linearGradient62);fill-rule:evenodd;stroke:none"
               d="m 47.191,43.547 0.161,24.879 -18.34,-0.028 -0.149,-24.89 z" /></g></g></g><g
         id="g66"><g
           id="g68"><g
             id="g74"><path
               id="path88"
               style="fill:url(#linearGradient86);fill-rule:evenodd;stroke:none"
               d="m 71.23,43.547 0.165,24.879 -18.34,-0.028 -0.153,-24.89 z" /></g></g></g><g
         id="g90"><g
           id="g92"><g
             id="g98"><path
               id="path108"
               style="fill:url(#linearGradient106);fill-rule:evenodd;stroke:none"
               d="M 46.957,49.145 46.93,68.531 29.137,68.594 29.16,49.211 Z" /></g></g></g><g
         id="g110"><g
           id="g112"><g
             id="g118"><path
               id="path128"
               style="fill:url(#linearGradient126);fill-rule:evenodd;stroke:none"
               d="M 71.492,49.145 71.469,68.531 53.672,68.594 53.699,49.211 Z" /></g></g></g><g
         transform="scale(0.951904,1)"
         id="g130"><path
           id="path132"
           style="fill:none;stroke:#01373e;stroke-width:1.56219602;stroke-linecap:round;stroke-linejoin:miter;stroke-miterlimit:10;stroke-dasharray:none;stroke-opacity:1"
           d="m 29.891,61.93 v 6.351 c 0.131,2.254 1.383,3.309 2.671,3.387 l 13.772,0.062 c 2.786,-0.089 3.529,-1.195 3.632,-3.617 V 43.402" /></g><path
         id="path134"
         style="fill:#01373e;fill-opacity:1;fill-rule:evenodd;stroke:none"
         d="m 30.312,68.594 15.54,-0.063 c -0.059,0.453 -0.657,1.184 -1.227,1.223 H 31.43 c -0.508,-0.027 -1.067,-0.598 -1.118,-1.16 z" /><path
         id="path136"
         style="fill:#01373e;fill-opacity:1;fill-rule:evenodd;stroke:none"
         d="m 54.973,68.594 15.539,-0.063 c -0.059,0.453 -0.657,1.184 -1.227,1.223 H 56.09 c -0.508,-0.027 -1.067,-0.598 -1.117,-1.16 z" /><path
         id="path138"
         style="fill:#01373e;fill-opacity:1;fill-rule:evenodd;stroke:none"
         d="m 46.883,49.25 -3.77,0.039 c -0.297,0.012 -0.519,0.223 -0.531,0.457 l 0.012,3.02 c 0.023,1.507 -2.231,1.546 -2.266,0.05 l 0.024,-3.019 c 0.011,-0.274 -0.114,-0.469 -0.309,-0.469 L 29.73,49.34 29.742,47.922 h 17.141 z" /><path
         id="path140"
         style="fill:#01373e;fill-opacity:1;fill-rule:evenodd;stroke:none"
         d="m 35.926,37.168 c 0.683,-0.106 2.121,-0.066 2.851,0.312 0.668,0.352 1.489,0.977 1.922,1.809 0.098,0.211 0.137,0.289 0.137,0.289 l 0.16,-0.133 c 0.496,-0.39 1.524,-0.519 2.516,-0.168 1.843,0.637 2.527,2.215 2.761,3.371 l -1.164,0.016 c -0.246,-1.445 -2.156,-2.672 -3.828,-2.109 l 0.199,1.066 -1.019,0.012 c -0.074,-0.86 -0.852,-2.25 -2.141,-2.813 -1.636,-0.715 -3.461,-0.324 -4.574,1.188 l 1.004,0.414 -0.25,0.312 c -0.84,-0.234 -1.707,-0.375 -2.574,0.118 -1.031,0.586 -1.328,1.328 -1.488,1.812 h -0.879 c 0.046,-1.422 0.828,-2.203 1.113,-2.461 0.422,-0.367 1.551,-0.887 2.047,-0.691 h 0.047 c 0.398,-1.055 1.734,-2.137 3.16,-2.344 z" /><g
         transform="scale(0.951904,1)"
         id="g142"><path
           id="path144"
           style="fill:none;stroke:#ffffff;stroke-width:0.390549;stroke-linecap:butt;stroke-linejoin:miter;stroke-miterlimit:10;stroke-dasharray:none;stroke-opacity:1"
           d="M 46.203,61.16 46.19,67.996" /></g><g
         transform="scale(0.951904,1)"
         id="g146"><path
           id="path148"
           style="fill:none;stroke:#ffffff;stroke-width:0.390549;stroke-linecap:butt;stroke-linejoin:miter;stroke-miterlimit:10;stroke-dasharray:none;stroke-opacity:1"
           d="m 46.166,60.418 -0.029,-6" /></g><g
         transform="scale(0.951904,1)"
         id="g150"><path
           id="path152"
           style="fill:none;stroke:#fffefa;stroke-width:1.56219602;stroke-linecap:round;stroke-linejoin:miter;stroke-miterlimit:10;stroke-dasharray:none;stroke-opacity:1"
           d="m 33.33,43.926 0.024,22.625" /></g><g
         transform="scale(0.951904,1)"
         id="g154"><path
           id="path156"
           style="fill:none;stroke:#01373e;stroke-width:1.17164695;stroke-linecap:butt;stroke-linejoin:miter;stroke-miterlimit:10;stroke-dasharray:none;stroke-opacity:1"
           d="M 31.064,43.223 49.941,43.207" /></g><path
         id="path158"
         style="fill:#01373e;fill-opacity:1;fill-rule:evenodd;stroke:none"
         d="m 34.961,60.184 c -0.57,0 -1.027,-0.481 -1.027,-1.079 0.011,-0.585 0.457,-1.07 1.027,-1.07 0.57,0 1.027,0.485 1.027,1.082 -0.011,0.586 -0.457,1.067 -1.027,1.067 z" /><path
         id="path160"
         style="fill:#01373e;fill-opacity:1;fill-rule:evenodd;stroke:none"
         d="m 39.336,64.48 c -0.422,0 -0.758,-0.351 -0.758,-0.781 0,-0.429 0.336,-0.781 0.746,-0.781 0.418,0 0.742,0.352 0.742,0.781 0,0.43 -0.324,0.781 -0.742,0.781 z" /><path
         id="path162"
         style="fill:#01373e;fill-opacity:1;fill-rule:evenodd;stroke:none"
         d="m 41.75,66.434 c -0.258,0 -0.469,-0.223 -0.469,-0.496 0,-0.258 0.211,-0.481 0.457,-0.481 0.262,0 0.473,0.223 0.473,0.496 0,0.258 -0.211,0.481 -0.473,0.481 z" /><path
         id="path164"
         style="fill:#01373e;fill-opacity:1;fill-rule:evenodd;stroke:none"
         d="m 35.059,66.434 c -0.211,0 -0.383,-0.168 -0.383,-0.391 0,-0.223 0.172,-0.391 0.371,-0.391 0.211,0 0.371,0.168 0.371,0.391 0,0.223 -0.16,0.391 -0.371,0.391 z" /><path
         id="path166"
         style="fill:#01373e;fill-opacity:1;fill-rule:evenodd;stroke:none"
         d="m 37.699,56.086 c -0.383,0 -0.695,-0.328 -0.695,-0.731 0,-0.402 0.312,-0.742 0.695,-0.742 0.383,0 0.696,0.34 0.696,0.742 0,0.403 -0.313,0.731 -0.696,0.731 z" /><path
         id="path168"
         style="fill:#01373e;fill-opacity:1;fill-rule:evenodd;stroke:none"
         d="m 34.219,53.793 c -0.438,0 -0.797,-0.379 -0.797,-0.832 0,-0.457 0.359,-0.836 0.797,-0.836 0.433,0 0.793,0.379 0.793,0.836 0,0.453 -0.36,0.832 -0.793,0.832 z" /><path
         id="path170"
         style="fill:#01373e;fill-opacity:1;fill-rule:evenodd;stroke:none"
         d="m 41.281,58.336 c -0.312,-0.012 -0.558,-0.274 -0.558,-0.598 0,-0.312 0.246,-0.586 0.558,-0.586 0.309,0 0.559,0.274 0.559,0.586 0,0.324 -0.25,0.586 -0.559,0.586 z" /><path
         id="path172"
         style="fill:#01373e;fill-opacity:1;fill-rule:evenodd;stroke:none"
         d="m 61.121,56.086 c -0.535,0 -0.98,-0.457 -0.98,-1.031 0,-0.559 0.445,-1.016 0.98,-1.016 0.543,0 0.977,0.457 0.977,1.016 0,0.574 -0.434,1.031 -0.977,1.031 z" /><path
         id="path174"
         style="fill:#01373e;fill-opacity:1;fill-rule:evenodd;stroke:none"
         d="m 60.562,61.551 c -0.484,0 -0.878,-0.414 -0.878,-0.922 0,-0.524 0.394,-0.938 0.878,-0.938 0.497,0 0.879,0.414 0.879,0.938 0,0.508 -0.382,0.922 -0.879,0.922 z" /><path
         id="path176"
         style="fill:#01373e;fill-opacity:1;fill-rule:evenodd;stroke:none"
         d="m 65.172,58.922 c -0.371,-0.012 -0.656,-0.313 -0.656,-0.692 0,-0.375 0.285,-0.687 0.644,-0.687 0.371,0 0.656,0.312 0.656,0.687 0,0.379 -0.285,0.68 -0.656,0.68 z" /><path
         id="path178"
         style="fill:#01373e;fill-opacity:1;fill-rule:evenodd;stroke:none"
         d="m 67.863,63.062 c -0.433,0 -0.793,-0.363 -0.793,-0.832 0,-0.457 0.36,-0.82 0.793,-0.82 0.434,0 0.793,0.363 0.793,0.82 0,0.469 -0.359,0.832 -0.793,0.832 z" /><path
         id="path180"
         style="fill:#01373e;fill-opacity:1;fill-rule:evenodd;stroke:none"
         d="m 59.684,66.383 c -0.235,0 -0.422,-0.195 -0.422,-0.445 0,-0.235 0.187,-0.43 0.422,-0.43 0.234,0 0.421,0.195 0.421,0.43 0,0.25 -0.187,0.445 -0.421,0.445 z" /><path
         id="path182"
         style="fill:#01373e;fill-opacity:1;fill-rule:evenodd;stroke:none"
         d="m 64.492,64.727 c -0.273,0 -0.484,-0.235 -0.484,-0.52 0,-0.273 0.211,-0.508 0.484,-0.508 0.27,0 0.481,0.235 0.481,0.508 0,0.285 -0.211,0.52 -0.481,0.52 z" /><path
         id="path184"
         style="fill:#01373e;fill-opacity:1;fill-rule:evenodd;stroke:none"
         d="m 57.738,63.75 c -0.187,0 -0.336,-0.156 -0.336,-0.336 0,-0.195 0.149,-0.352 0.325,-0.352 0.183,0 0.332,0.157 0.332,0.352 0,0.18 -0.149,0.336 -0.332,0.336 z" /><path
         id="path186"
         style="fill:#01373e;fill-opacity:1;fill-rule:evenodd;stroke:none"
         d="m 58.852,51.93 c -0.184,0 -0.332,-0.141 -0.332,-0.336 0,-0.196 0.148,-0.34 0.32,-0.34 0.187,0 0.336,0.144 0.336,0.34 0,0.195 -0.149,0.336 -0.336,0.336 z" /><g
         transform="scale(0.951904,1)"
         id="g188"><path
           id="path190"
           style="fill:none;stroke:#01373e;stroke-width:1.56219602;stroke-linecap:round;stroke-linejoin:miter;stroke-miterlimit:10;stroke-dasharray:none;stroke-opacity:1"
           d="m 75.913,61.723 -0.132,6.558 c -0.131,2.254 -1.378,3.309 -2.667,3.387 L 59.338,71.73 C 56.552,71.641 55.813,70.535 55.719,68.113 V 43.402" /></g><path
         id="path192"
         style="fill:#01373e;fill-opacity:1;fill-rule:evenodd;stroke:none"
         d="m 64.664,37.168 c -0.68,-0.106 -2.105,-0.066 -2.852,0.312 -0.656,0.352 -1.472,0.977 -1.906,1.809 -0.113,0.211 -0.136,0.289 -0.136,0.289 l -0.161,-0.133 c -0.507,-0.39 -1.539,-0.519 -2.527,-0.168 -1.848,0.637 -2.516,2.215 -2.754,3.371 l 1.168,0.016 c 0.246,-1.445 2.141,-2.672 3.828,-2.109 l -0.211,1.066 1.016,0.012 c 0.074,-0.86 0.867,-2.25 2.144,-2.813 1.637,-0.715 3.469,-0.324 4.586,1.188 l -1.004,0.414 0.247,0.312 c 0.832,-0.234 1.699,-0.375 2.566,0.118 1.027,0.586 1.336,1.328 1.484,1.812 h 0.883 c -0.051,-1.422 -0.82,-2.203 -1.117,-2.461 -0.422,-0.367 -1.547,-0.887 -2.043,-0.691 h -0.051 c -0.383,-1.055 -1.734,-2.137 -3.16,-2.344 z" /><path
         id="path194"
         style="fill:#01373e;fill-opacity:1;fill-rule:evenodd;stroke:none"
         d="m 71.008,49.289 h -3.446 c -0.296,0.012 -0.531,0.223 -0.531,0.441 v 3.036 c 0.024,1.507 -2.219,1.546 -2.254,0.05 l 0.012,-3.019 c 0.023,-0.274 -0.101,-0.469 -0.297,-0.469 l -10.808,0.09 v -1.535 h 17.289 z" /><g
         transform="scale(0.951904,1)"
         id="g196"><path
           id="path198"
           style="fill:none;stroke:#ffffff;stroke-width:0.97637302;stroke-linecap:round;stroke-linejoin:miter;stroke-miterlimit:10;stroke-dasharray:none;stroke-opacity:1"
           d="M 59.289,43.781 59.182,66.434" /></g><g
         transform="scale(0.951904,1)"
         id="g200"><path
           id="path202"
           style="fill:none;stroke:#01373e;stroke-width:1.17164695;stroke-linecap:butt;stroke-linejoin:miter;stroke-miterlimit:10;stroke-dasharray:none;stroke-opacity:1"
           d="M 74.624,43.223 55.735,43.207" /></g><g
         transform="scale(0.951904,1)"
         id="g204"><path
           id="path206"
           style="fill:none;stroke:#01373e;stroke-width:1.56219602;stroke-linecap:round;stroke-linejoin:miter;stroke-miterlimit:10;stroke-dasharray:none;stroke-opacity:1"
           d="m 24.371,59.547 c -1.887,-0.168 -3.422,-1.692 -3.41,-3.578 l -0.012,-8.254 c 0.115,-2.086 2.08,-3.336 3.357,-3.387" /></g><g
         transform="scale(0.951904,1)"
         id="g208"><path
           id="path210"
           style="fill:none;stroke:#01373e;stroke-width:1.56219602;stroke-linecap:butt;stroke-linejoin:miter;stroke-miterlimit:10;stroke-dasharray:none;stroke-opacity:1"
           d="m 81.235,59.781 c 1.888,-0.156 3.919,-1.73 3.895,-3.617 l 0.024,-8.254 c -0.09,-1.539 -1.186,-2.617 -2.265,-3.101 -0.39,-0.168 -1.186,-0.313 -1.522,-0.325" /></g><g
         transform="scale(0.951904,1)"
         id="g212"><path
           id="path214"
           style="fill:#ffc580;fill-opacity:1;fill-rule:evenodd;stroke:#ffeed0;stroke-width:0.78109801;stroke-linecap:butt;stroke-linejoin:miter;stroke-miterlimit:10;stroke-dasharray:none;stroke-opacity:1"
           d="m 81.055,45.512 0.012,0.273 c 0.287,-0.519 2.889,0.313 2.93,2.188 l 0.037,8.164 C 83.968,57.879 81.666,59 81.067,58.738" /></g><g
         transform="scale(0.951904,1)"
         id="g216"><path
           id="path218"
           style="fill:#ffc580;fill-opacity:1;fill-rule:evenodd;stroke:#ffeed0;stroke-width:0.78109801;stroke-linecap:butt;stroke-linejoin:miter;stroke-miterlimit:10;stroke-dasharray:none;stroke-opacity:1"
           d="m 24.712,58.258 c -0.927,0.508 -2.516,-0.496 -2.63,-2.238 l -0.054,-8.176 c 0.09,-1.512 2.421,-3.047 2.75,-2.188 z" /></g><path
         id="path220"
         style="fill:#01373e;fill-opacity:1;fill-rule:evenodd;stroke:none"
         d="m 75.496,33.211 c 0.211,0.559 -0.508,1.691 -1.277,1.863 l 0.051,0.207 c 0.16,0.324 1.113,4.426 1.003,5.664 l -0.015,0.09 h 1.043 c 0.769,0.051 1.351,1.094 1.226,1.574 l 0.075,18.071 c -0.086,0.418 -0.395,1.496 -1.61,1.601 L 72.223,62.23 c -0.84,-0.093 -1.364,-0.875 -1.325,-1.628 L 70.859,42.91 c 0,-0.676 0.582,-2.043 1.563,-1.887 l 1.945,0.024 0.012,-0.117 c 0.113,-0.844 -0.731,-4.789 -1.004,-5.309 L 73.34,35.477 C 72.559,35.621 72.125,35.32 71.727,34.449 68.207,26.703 60.797,21.352 51.008,20.766 41.516,20.18 32.109,26.703 28.828,34.695 c -0.164,0.391 -0.512,0.664 -0.808,0.77 l -0.68,-0.016 -0.051,0.196 c -0.445,0.793 -0.965,3.515 -0.93,5.417 l 1.86,-0.039 c 0.879,-0.078 1.574,0.872 1.66,1.641 l -0.051,18.199 c 0.016,1.172 -0.816,1.235 -1.558,1.274 l -3.891,-0.051 c -0.93,-0.027 -1.191,-0.379 -1.203,-1.613 L 23.125,42.48 c 0.027,-0.753 0.57,-1.484 1.328,-1.433 l 0.93,-0.102 c 0.058,-0.679 0.133,-2.879 0.656,-4.468 0.184,-0.571 0.434,-1.157 0.469,-1.403 0,-0.094 0.012,-0.039 -0.074,-0.066 -1.536,-0.52 -1.278,-1.875 -1.239,-1.965 0.039,-0.078 1.176,-2.672 1.524,-2.84 0.16,-0.078 -0.086,0.235 -0.285,0.625 -0.161,0.301 -0.274,0.703 -0.297,0.754 -0.235,0.586 0.211,0.848 0.445,0.469 1.277,-2.121 3.621,-4.856 4.414,-5.688 0.27,-0.285 0.024,-0.742 -0.262,-0.625 -0.394,0.168 -1.039,1.067 -1.25,1.16 -0.285,0.102 -0.507,-0.066 -0.238,-0.39 7.039,-8.36 15.84,-10.336 21.91,-10.363 3.696,-0.012 9.059,1.535 13.719,4.453 5.203,3.238 9.121,8.761 10.621,12.613 z" /><g
         transform="scale(0.951904,1)"
         id="g222"><path
           id="path224"
           style="fill:none;stroke:#ffeed0;stroke-width:0.78109801;stroke-linecap:butt;stroke-linejoin:miter;stroke-miterlimit:10;stroke-dasharray:none;stroke-opacity:1"
           d="m 27.277,42.273 v 18.68 z m 51.225,-0.039 v 18.797 z" /></g><g
         transform="scale(0.951904,1)"
         id="g226"><path
           id="path228"
           style="fill:none;stroke:#ffeed0;stroke-width:0.52073199;stroke-linecap:round;stroke-linejoin:miter;stroke-miterlimit:10;stroke-dasharray:none;stroke-opacity:1"
           d="m 75.507,43.363 c 0.078,-0.57 0.299,-0.816 0.796,-0.894" /></g><path
         id="path230"
         style="fill:#ffeed0;fill-opacity:1;fill-rule:evenodd;stroke:none"
         d="m 71.891,44.562 c -0.176,0 -0.313,-0.144 -0.313,-0.324 0,-0.183 0.137,-0.328 0.313,-0.328 0.171,0 0.308,0.145 0.308,0.328 0,0.18 -0.137,0.324 -0.308,0.324 z" /><path
         id="path232"
         style="fill:#ffeed0;fill-opacity:1;fill-rule:evenodd;stroke:none"
         d="m 23.945,51.891 c -0.175,-0.012 -0.324,-0.157 -0.324,-0.352 0,-0.18 0.149,-0.336 0.324,-0.336 0.184,0 0.332,0.156 0.332,0.336 0,0.195 -0.148,0.34 -0.332,0.34 z" /><g
         transform="scale(0.951904,1)"
         id="g234"><path
           id="path236"
           style="fill:none;stroke:#ffeed0;stroke-width:0.68997002;stroke-linecap:round;stroke-linejoin:miter;stroke-miterlimit:10;stroke-dasharray:none;stroke-opacity:1"
           d="m 25.204,48.379 v 1.262" /></g><g
         transform="scale(0.951904,1)"
         id="g238"><path
           id="path240"
           style="fill:none;stroke:#ffeed0;stroke-width:0.68997002;stroke-linecap:round;stroke-linejoin:miter;stroke-miterlimit:10;stroke-dasharray:none;stroke-opacity:1"
           d="m 25.126,44.172 0.013,2.41" /></g><path
         id="path242"
         style="fill:#ffeed0;fill-opacity:1;fill-rule:evenodd;stroke:none"
         d="m 94.633,46.559 0.086,22.043 7.711,-0.129 c 1.25,0.164 1.996,-0.797 2.207,-2.946 l -0.043,-7.406 c -0.231,-0.734 0.074,-1.617 -0.797,-2.035 0.531,-1.723 2.141,-1.223 0.406,-8.227 -0.312,-0.808 -1.265,-1.097 -1.687,-1.129 z m 5.242,6.195 h 1.383 c 0.097,1.273 -0.832,2.047 -1.535,2.406 z m 1.176,7.871 c 0.254,0.012 0.453,0.273 0.469,1.047 0.042,2.254 0.226,2.601 0.226,2.601 L 99.598,64.055 99.875,61.5 c 0,0 0.687,-0.895 1.176,-0.875 z" /><path
         id="path244"
         style="fill:#ffeed0;fill-opacity:1;fill-rule:evenodd;stroke:none"
         d="m 198.301,46.629 h 10.137 v 4.418 l -6.977,0.133 -0.367,4.047 c 1.226,-0.047 2.504,0.218 3.508,-1.254 l 2.363,3.441 c -1.184,1.59 -3.242,2.656 -5.285,2.598 l -0.129,4.375 6.797,-0.043 0.218,4.547 -10.437,-0.258 z" /><path
         id="path246"
         style="fill:#ffeed0;fill-opacity:1;fill-rule:evenodd;stroke:none"
         d="m 242.898,46.633 h 10.133 v 4.414 l -6.972,0.133 0.121,4.203 c 1.226,-0.047 2.011,0.062 3.019,-1.41 l 2.36,3.441 c -1.184,1.59 -3.243,2.656 -5.286,2.598 l -0.128,4.375 6.8,-0.043 0.215,4.547 -10.437,-0.258 z" /><path
         id="path248"
         style="fill:#ffeed0;fill-opacity:1;fill-rule:evenodd;stroke:none"
         d="m 214.383,68.559 -3.074,0.129 -0.043,-22.172 3.246,-0.043 c 1.773,2.515 3.062,5.132 3.683,7.882 l 0.043,-7.839 3.074,-0.043 0.086,22.304 -3.074,-0.132 -1.906,-8.747 -1.43,0.172 z" /><path
         id="path250"
         style="fill:#ffeed0;fill-opacity:1;fill-rule:evenodd;stroke:none"
         d="m 185.105,46.516 c 3.207,0.129 3.207,0.086 3.207,0.086 l -0.042,11.605 c 0.011,2.633 0.785,4.5 1.945,5.977 1.082,-1.809 1.754,-4.024 1.906,-6.754 l -0.043,-10.957 2.988,0.129 0.133,12.429 c -0.371,3.586 -0.867,7.117 -3.726,9.571 l -2.426,0.086 c -2.203,-1.715 -3.379,-5.36 -3.856,-10.305 z" /><path
         id="path252"
         style="fill:#ffeed0;fill-opacity:1;fill-rule:evenodd;stroke:none"
         d="m 107.711,46.559 h 10.137 v 4.418 l -6.973,0.128 -0.047,4.247 c 1.227,-0.047 2.504,0.218 3.512,-1.258 l 2.035,3.25 c -1.184,1.586 -3.242,2.656 -5.285,2.597 l -0.129,4.375 6.797,-0.043 0.219,4.547 -10.223,-0.132 z" /><path
         id="path254"
         style="fill:#ffeed0;fill-opacity:1;fill-rule:evenodd;stroke:none"
         d="m 134.305,46.645 -0.176,21.871 3.207,0.086 V 59.68 l 3.723,-0.043 0.089,8.922 h 3.032 l 0.343,-20.184 -1.644,-1.602 z m 4.883,5.816 h 1.898 c -0.359,2.074 -1.191,2.422 -2.035,2.738 z" /><path
         id="path256"
         style="fill:#ffeed0;fill-opacity:1;fill-rule:evenodd;stroke:none"
         d="m 269.43,64.184 -0.086,4.504 10.351,-0.258 -0.172,-10.871 c -1.269,-2.012 -1.847,-2.192 -2.644,-2.207 -2.918,0.316 -3.106,-0.426 -3.551,-1.344 l -0.648,-2.817 6.797,-0.043 -0.043,-4.632 -7.969,0.043 c -2.383,0.796 -2.11,3.523 -2.035,6.105 0.793,4.094 1.961,5.227 3.191,6.316 l 2.527,1.133 0.954,0.086 0.128,3.942 z" /><path
         id="path258"
         style="fill:#ffeed0;fill-opacity:1;fill-rule:evenodd;stroke:none"
         d="m 178.957,46.516 c 3.16,0.086 3.16,0.086 3.16,0.086 v 22 l -3.16,-0.043 z" /><path
         id="path260"
         style="fill:#ffeed0;fill-opacity:1;fill-rule:evenodd;stroke:none"
         d="m 165.996,46.594 -0.172,21.871 3.203,0.086 0.032,-8.676 3.695,-0.289 0.086,8.922 h 3.031 l 0.348,-20.184 -1.649,-1.601 z m 4.887,5.816 h 1.898 c -0.363,2.074 -1.195,2.418 -2.035,2.738 z" /><path
         id="path262"
         style="fill:#ffeed0;fill-opacity:1;fill-rule:evenodd;stroke:none"
         d="m 256.09,46.473 c 0,0 2.066,0.058 3.207,0.343 0.805,4.391 1.949,16.59 1.949,16.59 0,0 1.461,0.114 1.859,-6.281 l 0.043,-10.566 h 2.86 l 0.133,13.683 c -0.625,3.61 -1.836,6.516 -3.727,8.621 l -2.254,-0.086 c -3.285,-3.906 -3.43,-7.023 -4.07,-10.265 z" /><path
         id="path264"
         style="fill:#ffeed0;fill-opacity:1;fill-rule:evenodd;stroke:none"
         d="m 152.816,46.52 -0.031,22.109 7.598,0.305 c 1.117,-0.356 2.691,0.628 2.601,-3.274 l 0.032,-16.57 c -0.598,-1.266 -1.219,-2.219 -2.207,-2.387 0,0 0.125,0 -7.993,-0.183 z m 4.93,5.972 2.024,0.09 -0.032,11.699 h -1.992 z" /><path
         id="path266"
         style="fill:#ffeed0;fill-opacity:1;fill-rule:evenodd;stroke:none"
         d="m 230.062,46.312 -0.027,22.11 7.594,0.305 c 1.117,-0.356 2.691,0.628 2.601,-3.274 l 0.032,-16.57 c -0.594,-1.266 -1.219,-2.219 -2.203,-2.387 0,0 0.121,0 -7.997,-0.184 z m 4.934,5.973 2.02,0.09 -0.032,11.699 h -1.988 z" /><path
         id="path268"
         style="fill:#ffeed0;fill-opacity:1;fill-rule:evenodd;stroke:none"
         d="m 121.066,46.656 h 10.137 v 4.418 l -6.973,0.129 -0.371,4.051 c 1.227,-0.047 2.504,0.219 3.508,-1.258 l 2.363,3.445 c -1.183,1.586 -3.242,2.657 -5.285,2.598 l -0.129,4.375 6.801,-0.043 0.215,4.547 -10.437,-0.262 z" /><g
         id="g270"><path
           id="path272"
           style="fill:#cf8c4f;fill-opacity:1;fill-rule:evenodd;stroke:#000000;stroke-width:0.25;stroke-linecap:butt;stroke-linejoin:miter;stroke-miterlimit:4;stroke-dasharray:none;stroke-opacity:1"
           d="m 101.785,50.887 c -0.035,1.605 -0.324,2.789 -0.867,3.547 -0.531,0.757 -1.316,1.136 -2.359,1.136 h -0.868 v -4.683 z m 0,13.554 h -4.094 v -4.757 h 0.868 c 0.992,0.046 1.984,-0.246 2.976,-0.887 0.082,0.191 0.141,0.379 0.176,0.57 0.047,0.164 0.074,0.34 0.074,0.531 z m 2.828,-5.679 c 0,-0.543 -0.066,-1.016 -0.199,-1.418 -0.133,-0.403 -0.371,-0.805 -0.719,-1.207 0.133,-0.403 0.254,-0.805 0.371,-1.207 0.118,-0.403 0.223,-0.782 0.325,-1.137 0.082,-0.473 0.14,-0.922 0.171,-1.348 0.036,-0.425 0.051,-0.898 0.051,-1.418 v -1.101 c 0,-0.875 -0.207,-1.621 -0.621,-2.235 -0.414,-0.613 -0.933,-0.921 -1.562,-0.921 h -7.641 v 21.75 h 7.641 c 0.629,0 1.148,-0.305 1.562,-0.922 0.414,-0.614 0.621,-1.348 0.621,-2.2 z M 94.738,68.805 H 94.641 V 46.449 h 7.789 c 0.332,0 0.636,0.082 0.918,0.25 0.297,0.164 0.547,0.403 0.742,0.707 l 1.539,1.207 c -0.031,-0.047 -0.067,-0.07 -0.098,-0.07 l 0.098,0.07 c 0.383,0.309 0.68,0.723 0.894,1.242 0.215,0.497 0.321,1.067 0.321,1.704 v 1.101 c 0,1.016 -0.082,1.949 -0.246,2.801 l -0.075,0.285 c -0.082,0.332 -0.175,0.664 -0.273,0.992 -0.082,0.309 -0.184,0.629 -0.297,0.961 0.348,0.426 0.578,0.84 0.695,1.242 0.129,0.379 0.196,0.864 0.196,1.454 v 6.671 c 0,0.426 -0.067,0.84 -0.196,1.243 -0.117,0.402 -0.281,0.757 -0.496,1.062 -0.199,0.309 -0.449,0.559 -0.746,0.746 -0.281,0.188 -0.594,0.285 -0.941,0.285 H 96.75 Z m 6.824,-7.239 c -0.316,0.047 -0.621,0.047 -0.917,0 h -0.747 v 2.52 h 1.664 z M 99.898,55 c 0.747,-0.355 1.243,-1.098 1.489,-2.234 h -1.489 z m 17.813,9.441 h -6.945 v -4.757 h 0.867 c 0.332,0 0.637,-0.024 0.918,-0.071 0.297,-0.047 0.613,-0.129 0.941,-0.246 0.598,-0.191 1.078,-0.449 1.442,-0.781 h -0.028 l 0.125,-0.106 c 0.149,-0.144 0.305,-0.285 0.473,-0.425 0.164,-0.145 0.363,-0.403 0.594,-0.782 -0.133,-0.261 -0.297,-0.535 -0.496,-0.816 -0.18,-0.309 -0.34,-0.559 -0.473,-0.746 l -0.395,-0.746 -0.523,-0.746 c -0.297,0.523 -0.668,0.879 -1.113,1.066 -0.43,0.188 -0.918,0.285 -1.465,0.285 h -0.867 v -4.683 h 6.945 V 46.77 h -9.848 v 21.75 h 9.848 z m 0.246,-0.179 1.961,1.562 v 4.578 H 109.82 l -2.008,-1.597 h -0.097 V 46.449 h 10.242 v 0.18 l 1.961,1.559 v 4.578 h -6.945 V 55 c 0.23,-0.117 0.445,-0.27 0.644,-0.461 0.199,-0.211 0.399,-0.461 0.594,-0.746 l 0.227,0.285 1.808,1.457 0.645,0.922 0.421,0.707 c 0.133,0.191 0.309,0.477 0.524,0.852 0.215,0.355 0.394,0.664 0.543,0.925 -0.231,0.352 -0.422,0.614 -0.57,0.778 -0.149,0.144 -0.274,0.273 -0.371,0.39 h -0.024 c -0.082,0.047 -0.141,0.086 -0.176,0.11 -0.015,0.023 -0.039,0.047 -0.074,0.07 h 0.051 c -0.016,0.023 -0.035,0.035 -0.051,0.035 0,0 -0.008,0.012 -0.023,0.035 -0.016,0.024 -0.036,0.036 -0.051,0.036 -0.43,0.402 -0.926,0.687 -1.488,0.851 -0.332,0.117 -0.653,0.199 -0.969,0.25 -0.297,0.047 -0.61,0.07 -0.942,0.07 h -0.718 v 2.52 h 4.984 z m -2.727,-5.711 c -0.035,0 -0.058,0.011 -0.074,0.035 0,0 -0.008,0 -0.027,0 z m 15.653,5.89 h -6.945 v -4.757 h 0.867 c 0.332,0 0.636,-0.024 0.918,-0.071 0.297,-0.047 0.613,-0.129 0.945,-0.246 0.594,-0.191 1.074,-0.449 1.437,-0.781 h -0.023 l 0.121,-0.106 c 0.149,-0.144 0.309,-0.285 0.473,-0.425 0.164,-0.145 0.363,-0.403 0.594,-0.782 -0.133,-0.261 -0.297,-0.535 -0.497,-0.816 -0.179,-0.309 -0.335,-0.559 -0.468,-0.746 l -0.399,-0.746 -0.519,-0.746 c -0.301,0.523 -0.672,0.879 -1.117,1.066 -0.43,0.188 -0.918,0.285 -1.465,0.285 h -0.867 v -4.683 h 6.945 V 46.77 h -9.848 v 21.75 h 9.848 z m 0.25,-0.179 1.957,1.562 v 4.578 h -10.094 l -2.012,-1.597 h -0.097 V 46.449 h 10.246 v 0.18 l 1.957,1.559 v 4.578 h -6.945 V 55 c 0.23,-0.117 0.445,-0.27 0.644,-0.461 0.199,-0.211 0.399,-0.461 0.598,-0.746 l 0.222,0.285 1.809,1.457 0.648,0.922 0.422,0.707 c 0.129,0.191 0.305,0.477 0.52,0.852 0.215,0.355 0.398,0.664 0.547,0.925 -0.235,0.352 -0.422,0.614 -0.571,0.778 -0.152,0.144 -0.273,0.273 -0.375,0.39 h -0.023 c -0.082,0.047 -0.141,0.086 -0.176,0.11 -0.015,0.023 -0.039,0.047 -0.074,0.07 h 0.051 c -0.016,0.023 -0.032,0.035 -0.051,0.035 0,0 -0.008,0.012 -0.024,0.035 -0.015,0.024 -0.031,0.036 -0.05,0.036 -0.43,0.402 -0.926,0.687 -1.489,0.851 -0.328,0.117 -0.652,0.199 -0.964,0.25 -0.301,0.047 -0.614,0.07 -0.946,0.07 h -0.718 v 2.52 h 4.988 z m -2.731,-5.711 c -0.031,0 -0.058,0.011 -0.074,0.035 0,0 -0.008,0 -0.023,0 z m 12.926,-7.699 c -0.035,1.628 -0.324,2.824 -0.867,3.582 -0.531,0.757 -1.316,1.136 -2.359,1.136 h -0.868 v -4.718 z m 2.852,17.668 v -9.793 c 0,-0.969 -0.305,-1.821 -0.918,-2.555 0.133,-0.332 0.25,-0.711 0.347,-1.137 0.098,-0.426 0.192,-0.805 0.274,-1.133 0,-0.047 0.008,-0.082 0.023,-0.109 v 0.074 c 0.082,-0.472 0.149,-0.949 0.199,-1.422 0.051,-0.472 0.075,-0.957 0.075,-1.453 v -1.066 c 0,-0.875 -0.207,-1.621 -0.621,-2.235 -0.411,-0.636 -0.934,-0.957 -1.563,-0.957 h -7.664 V 68.52 h 2.902 v -8.836 h 0.868 c 0.449,0 0.918,-0.071 1.414,-0.211 0.511,-0.141 1.027,-0.368 1.539,-0.676 0.117,0.215 0.191,0.402 0.222,0.57 0.035,0.164 0.051,0.34 0.051,0.531 v 8.622 z m -9.899,0.285 h -0.097 V 46.414 h 7.812 c 0.645,0 1.192,0.32 1.637,0.957 l 1.539,1.207 c 0.383,0.309 0.68,0.723 0.894,1.242 0.215,0.52 0.321,1.102 0.321,1.739 v 1.066 c 0,1.039 -0.09,2.008 -0.274,2.91 -0.015,0.024 -0.023,0.047 -0.023,0.07 0,0.047 -0.008,0.106 -0.024,0.176 0,0.047 -0.027,0.129 -0.074,0.25 h 0.024 c -0.067,0.211 -0.164,0.508 -0.297,0.887 -0.117,0.355 -0.199,0.625 -0.25,0.816 l 0.051,0.036 c 0.578,0.757 0.867,1.621 0.867,2.589 v 10.043 h -3.149 l -1.961,-1.597 h -0.172 v -7.274 c -0.167,0.024 -0.332,0.035 -0.496,0.035 -0.152,0 -0.3,0 -0.449,0 h -0.719 v 8.836 h -3.148 z M 139.441,55 c 0.747,-0.355 1.25,-1.109 1.516,-2.27 h -1.516 z m 4.043,0.816 -0.046,0.145 v 0.035 z m 9.43,-9.046 v 21.75 h 7.641 c 0.609,0 1.121,-0.305 1.535,-0.922 0.43,-0.614 0.644,-1.348 0.644,-2.2 V 49.926 c 0,-0.875 -0.214,-1.621 -0.644,-2.235 -0.414,-0.613 -0.926,-0.921 -1.535,-0.921 z m 2.926,4.117 h 4.066 v 13.554 h -4.117 v -9.617 z m 4.715,-4.438 c 0.625,0 1.179,0.321 1.66,0.957 l 1.539,1.207 c -0.066,-0.047 -0.109,-0.07 -0.125,-0.07 l 0.125,0.07 c 0.379,0.309 0.676,0.723 0.891,1.242 0.214,0.497 0.324,1.067 0.324,1.704 v 15.507 c 0,0.426 -0.067,0.84 -0.199,1.243 -0.114,0.402 -0.282,0.757 -0.497,1.062 -0.214,0.309 -0.468,0.559 -0.769,0.746 -0.281,0.188 -0.578,0.285 -0.891,0.285 h -7.742 l -1.957,-1.597 h -0.152 V 46.449 Z m -2.559,17.637 h 1.688 v -11.32 h -1.637 l -0.051,3.691 z M 172.98,50.852 c -0.031,1.628 -0.32,2.824 -0.867,3.582 -0.527,0.757 -1.316,1.136 -2.355,1.136 h -0.871 v -4.718 z m 2.856,17.668 v -9.793 c 0,-0.969 -0.309,-1.821 -0.918,-2.555 0.133,-0.332 0.246,-0.711 0.348,-1.137 0.097,-0.426 0.187,-0.805 0.269,-1.133 0,-0.047 0.012,-0.082 0.027,-0.109 v 0.074 c 0.083,-0.472 0.149,-0.949 0.2,-1.422 0.047,-0.472 0.074,-0.957 0.074,-1.453 v -1.066 c 0,-0.875 -0.207,-1.621 -0.621,-2.235 -0.414,-0.636 -0.934,-0.957 -1.563,-0.957 h -7.668 V 68.52 h 2.903 v -8.836 h 0.871 c 0.445,0 0.918,-0.071 1.414,-0.211 0.512,-0.141 1.023,-0.368 1.535,-0.676 0.117,0.215 0.191,0.402 0.227,0.57 0.031,0.164 0.046,0.34 0.046,0.531 v 8.622 z m -9.898,0.285 h -0.102 V 46.414 h 7.816 c 0.645,0 1.192,0.32 1.637,0.957 l 1.539,1.207 c 0.379,0.309 0.676,0.723 0.891,1.242 0.215,0.52 0.324,1.102 0.324,1.739 v 1.066 c 0,1.039 -0.09,2.008 -0.273,2.91 -0.016,0.024 -0.024,0.047 -0.024,0.07 0,0.047 -0.012,0.106 -0.027,0.176 0,0.047 -0.024,0.129 -0.074,0.25 h 0.027 c -0.067,0.211 -0.168,0.508 -0.301,0.887 -0.113,0.355 -0.195,0.625 -0.246,0.816 l 0.051,0.036 c 0.578,0.757 0.867,1.621 0.867,2.589 v 10.043 h -3.152 l -1.957,-1.597 h -0.176 v -7.274 c -0.164,0.024 -0.332,0.035 -0.496,0.035 -0.149,0 -0.297,0 -0.446,0 h -0.718 v 8.836 h -3.153 z M 171.098,55 c 0.742,-0.355 1.246,-1.109 1.511,-2.27 h -1.511 z m 4.043,0.816 -0.051,0.145 v 0.035 z m 6.847,-9.046 h -2.855 v 21.75 h 2.855 z m 0.246,-0.141 1.961,1.559 v 22.214 h -3.101 l -2.008,-1.597 h -0.102 V 46.449 h 3.25 z m 7.914,17.988 c -0.48,-0.613 -0.867,-1.347 -1.168,-2.199 -0.296,-0.875 -0.511,-1.809 -0.644,-2.805 -0.082,-0.519 -0.141,-1.015 -0.172,-1.488 -0.016,-0.473 -0.023,-0.984 -0.023,-1.527 V 46.77 h -2.903 v 9.828 c 0,2.695 0.328,5.039 0.992,7.027 0.661,1.984 1.594,3.617 2.801,4.895 h 2.258 c 1.207,-1.278 2.133,-2.911 2.777,-4.895 0.664,-1.988 0.993,-4.332 0.993,-7.027 V 46.77 h -2.852 v 9.828 c 0,0.804 -0.031,1.562 -0.098,2.269 -0.066,0.688 -0.183,1.352 -0.347,1.988 -0.149,0.641 -0.356,1.266 -0.621,1.883 -0.266,0.614 -0.594,1.242 -0.993,1.879 z m -1.066,4.188 h -0.148 c -1.258,-1.301 -2.219,-2.969 -2.879,-5.004 -0.645,-2.059 -0.969,-4.457 -0.969,-7.203 V 46.449 h 3.301 v 0.18 l 1.961,1.559 V 58.23 c 0,0.52 0.007,1.028 0.023,1.528 0.035,0.472 0.09,0.957 0.176,1.453 0.031,0.309 0.074,0.59 0.121,0.851 0.066,0.239 0.125,0.485 0.176,0.747 0.429,-0.973 0.726,-1.954 0.89,-2.946 0.168,-0.996 0.25,-2.082 0.25,-3.265 V 46.449 h 3.325 v 0.18 l 1.961,1.559 V 58.23 c 0,2.743 -0.332,5.133 -0.993,7.168 -0.664,2.012 -1.605,3.68 -2.828,5.004 h -2.406 z m 19.051,-4.364 h -6.945 v -4.757 h 0.867 c 0.332,0 0.636,-0.024 0.918,-0.071 0.297,-0.047 0.613,-0.129 0.945,-0.246 0.594,-0.191 1.074,-0.449 1.437,-0.781 h -0.023 l 0.121,-0.106 c 0.149,-0.144 0.309,-0.285 0.473,-0.425 0.164,-0.145 0.363,-0.403 0.594,-0.782 -0.129,-0.261 -0.297,-0.535 -0.497,-0.816 -0.179,-0.309 -0.335,-0.559 -0.468,-0.746 l -0.399,-0.746 -0.519,-0.746 c -0.297,0.523 -0.672,0.879 -1.117,1.066 -0.43,0.188 -0.918,0.285 -1.465,0.285 h -0.867 v -4.683 h 6.945 V 46.77 h -9.848 v 21.75 h 9.848 z m 0.25,-0.179 1.957,1.562 v 4.578 h -10.094 l -2.012,-1.597 h -0.097 V 46.449 h 10.246 v 0.18 l 1.957,1.559 v 4.578 h -6.945 V 55 c 0.234,-0.117 0.449,-0.27 0.644,-0.461 0.199,-0.211 0.399,-0.461 0.598,-0.746 l 0.222,0.285 1.813,1.457 0.644,0.922 0.422,0.707 c 0.129,0.191 0.305,0.477 0.52,0.852 0.215,0.355 0.398,0.664 0.547,0.925 -0.235,0.352 -0.422,0.614 -0.571,0.778 -0.148,0.144 -0.273,0.273 -0.375,0.39 h -0.023 c -0.082,0.047 -0.141,0.086 -0.172,0.11 -0.019,0.023 -0.043,0.047 -0.074,0.07 h 0.047 c -0.016,0.023 -0.032,0.035 -0.047,0.035 0,0 -0.012,0.012 -0.028,0.035 -0.015,0.024 -0.031,0.036 -0.05,0.036 -0.43,0.402 -0.926,0.687 -1.489,0.851 -0.328,0.117 -0.652,0.199 -0.964,0.25 -0.297,0.047 -0.614,0.07 -0.946,0.07 h -0.718 v 2.52 h 4.988 z m -2.731,-5.711 c -0.031,0 -0.058,0.011 -0.074,0.035 0,0 -0.008,0 -0.023,0 z M 211.41,46.734 V 68.52 h 2.875 V 52.871 c 0.977,2.484 1.777,5.016 2.406,7.594 0.645,2.578 1.207,5.265 1.688,8.055 h 2.851 V 46.734 h -2.828 l 0.028,8.871 c -0.282,-0.781 -0.59,-1.597 -0.918,-2.449 -0.317,-0.875 -0.645,-1.703 -0.992,-2.484 -0.348,-0.805 -0.688,-1.551 -1.02,-2.234 -0.328,-0.688 -0.645,-1.254 -0.941,-1.704 z m 3.297,-0.25 0.148,0.25 1.864,1.489 c 0.23,0.332 0.461,0.746 0.691,1.242 0.25,0.496 0.516,1.019 0.797,1.562 v -0.461 c 0,-0.687 -0.012,-1.382 -0.027,-2.093 0,-0.711 0,-1.395 0,-2.059 h 3.3 v 0.176 l 1.985,1.562 v 22.25 h -3.176 l -1.934,-1.597 h -0.175 c -0.266,-1.418 -0.528,-2.793 -0.793,-4.117 -0.266,-1.325 -0.563,-2.649 -0.895,-3.973 v 9.687 h -3.125 l -1.961,-1.597 h -0.148 V 46.414 h 3.324 z m 15.332,0.286 v 21.75 h 7.641 c 0.613,0 1.125,-0.305 1.539,-0.922 0.429,-0.614 0.644,-1.348 0.644,-2.2 V 49.926 c 0,-0.875 -0.215,-1.621 -0.644,-2.235 -0.414,-0.613 -0.926,-0.921 -1.539,-0.921 z m 2.926,4.117 h 4.07 v 13.554 h -4.117 v -9.617 z m 4.715,-4.438 c 0.629,0 1.183,0.321 1.66,0.957 l 1.539,1.207 c -0.067,-0.047 -0.106,-0.07 -0.125,-0.07 l 0.125,0.07 c 0.383,0.309 0.68,0.723 0.894,1.242 0.215,0.497 0.321,1.067 0.321,1.704 v 15.507 c 0,0.426 -0.067,0.84 -0.196,1.243 -0.117,0.402 -0.281,0.757 -0.496,1.062 -0.218,0.309 -0.472,0.559 -0.769,0.746 -0.281,0.188 -0.582,0.285 -0.895,0.285 H 232 l -1.961,-1.597 h -0.148 V 46.449 Z m -2.555,17.637 h 1.687 v -11.32 h -1.64 l -0.047,3.691 z m 17.711,0.355 h -6.945 v -4.757 h 0.867 c 0.332,0 0.637,-0.024 0.918,-0.071 0.297,-0.047 0.613,-0.129 0.945,-0.246 0.594,-0.191 1.074,-0.449 1.438,-0.781 h -0.024 l 0.121,-0.106 c 0.149,-0.144 0.309,-0.285 0.473,-0.425 0.164,-0.145 0.363,-0.403 0.594,-0.782 -0.133,-0.261 -0.297,-0.535 -0.496,-0.816 -0.18,-0.309 -0.336,-0.559 -0.469,-0.746 l -0.399,-0.746 -0.519,-0.746 c -0.297,0.523 -0.672,0.879 -1.117,1.066 -0.43,0.188 -0.918,0.285 -1.465,0.285 h -0.867 v -4.683 h 6.945 V 46.77 h -9.848 v 21.75 h 9.848 z m 0.25,-0.179 1.957,1.562 v 4.578 h -10.094 l -2.011,-1.597 H 242.84 V 46.449 h 10.246 v 0.18 l 1.957,1.559 v 4.578 h -6.945 V 55 c 0.23,-0.117 0.449,-0.27 0.644,-0.461 0.199,-0.211 0.399,-0.461 0.598,-0.746 l 0.222,0.285 1.809,1.457 0.649,0.922 0.421,0.707 c 0.129,0.191 0.305,0.477 0.52,0.852 0.215,0.355 0.398,0.664 0.547,0.925 -0.235,0.352 -0.422,0.614 -0.57,0.778 -0.153,0.144 -0.274,0.273 -0.376,0.39 h -0.023 c -0.082,0.047 -0.141,0.086 -0.176,0.11 -0.015,0.023 -0.039,0.047 -0.074,0.07 h 0.051 c -0.016,0.023 -0.031,0.035 -0.051,0.035 0,0 -0.008,0.012 -0.023,0.035 -0.016,0.024 -0.032,0.036 -0.051,0.036 -0.43,0.402 -0.926,0.687 -1.488,0.851 -0.329,0.117 -0.653,0.199 -0.965,0.25 -0.301,0.047 -0.614,0.07 -0.946,0.07 h -0.718 v 2.52 h 4.988 z m -2.731,-5.711 c -0.031,0 -0.058,0.011 -0.074,0.035 0,0 -0.008,0 -0.023,0 z m 10.766,6.066 c -0.476,-0.613 -0.867,-1.347 -1.164,-2.199 -0.297,-0.875 -0.512,-1.809 -0.645,-2.805 -0.082,-0.519 -0.14,-1.015 -0.175,-1.488 -0.016,-0.473 -0.024,-0.984 -0.024,-1.527 V 46.77 h -2.902 v 9.828 c 0,2.695 0.332,5.039 0.992,7.027 0.66,1.984 1.594,3.617 2.805,4.895 h 2.254 c 1.207,-1.278 2.136,-2.911 2.781,-4.895 0.66,-1.988 0.992,-4.332 0.992,-7.027 V 46.77 h -2.855 v 9.828 c 0,0.804 -0.032,1.562 -0.098,2.269 -0.066,0.688 -0.184,1.352 -0.348,1.988 -0.148,0.641 -0.355,1.266 -0.621,1.883 -0.261,0.614 -0.593,1.242 -0.992,1.879 z m -1.066,4.188 h -0.149 c -1.258,-1.301 -2.215,-2.969 -2.879,-5.004 -0.644,-2.059 -0.965,-4.457 -0.965,-7.203 V 46.449 h 3.297 v 0.18 l 1.961,1.559 V 58.23 c 0,0.52 0.008,1.028 0.028,1.528 0.031,0.472 0.09,0.957 0.172,1.453 0.031,0.309 0.074,0.59 0.125,0.851 0.066,0.239 0.121,0.485 0.171,0.747 0.43,-0.973 0.727,-1.954 0.895,-2.946 0.164,-0.996 0.246,-2.082 0.246,-3.265 V 46.449 h 3.324 v 0.18 l 1.961,1.559 V 58.23 c 0,2.743 -0.332,5.133 -0.992,7.168 -0.66,2.012 -1.605,3.68 -2.828,5.004 h -2.406 z m 16.398,-9.157 v 4.758 h -6.969 v 4.114 h 7.664 c 0.629,0 1.149,-0.305 1.563,-0.922 0.414,-0.614 0.621,-1.36 0.621,-2.235 v -6.636 c 0,-0.875 -0.207,-1.622 -0.621,-2.235 -0.414,-0.617 -0.934,-0.922 -1.563,-0.922 h -1.562 c -1.043,0 -1.828,-0.379 -2.359,-1.136 -0.528,-0.758 -0.809,-1.954 -0.84,-3.582 h 6.945 v -4.118 h -7.617 c -0.629,0 -1.156,0.309 -1.586,0.922 -0.43,0.59 -0.645,1.336 -0.645,2.235 v 1.101 c 0,0.992 0.098,1.961 0.297,2.91 0.098,0.379 0.215,0.793 0.348,1.243 0.148,0.449 0.281,0.828 0.394,1.132 0.235,0.403 0.504,0.817 0.821,1.243 0.312,0.425 0.636,0.781 0.965,1.066 0.281,0.164 0.554,0.32 0.82,0.461 0.266,0.141 0.473,0.246 0.621,0.32 v -0.035 c 0.098,0.07 0.191,0.117 0.273,0.141 0.098,0.023 0.223,0.047 0.372,0.07 l 0.445,0.105 z m -7.019,9.157 h -0.2 v -4.754 h 6.996 v -2.629 c -0.101,-0.024 -0.183,-0.035 -0.25,-0.035 -0.066,-0.024 -0.14,-0.071 -0.222,-0.141 -0.082,-0.047 -0.215,-0.117 -0.395,-0.211 -0.168,-0.097 -0.367,-0.226 -0.597,-0.39 l -0.098,-0.075 c -0.035,-0.023 -0.082,-0.047 -0.148,-0.07 -0.051,-0.023 -0.149,-0.082 -0.301,-0.176 -0.149,-0.117 -0.356,-0.273 -0.617,-0.461 -0.25,-0.215 -0.59,-0.496 -1.02,-0.851 l -0.195,-0.071 -0.301,-0.144 c -0.281,-0.235 -0.586,-0.578 -0.918,-1.027 -0.313,-0.45 -0.578,-0.875 -0.793,-1.278 -0.148,-0.379 -0.305,-0.793 -0.473,-1.242 -0.148,-0.449 -0.269,-0.863 -0.371,-1.242 -0.199,-0.946 -0.297,-1.953 -0.297,-3.016 v -1.101 c 0,-0.993 0.239,-1.821 0.719,-2.485 0.496,-0.66 1.082,-0.992 1.762,-0.992 h 7.84 v 0.176 l 1.984,1.562 v 4.578 h -6.945 c 0.082,1.04 0.246,1.868 0.496,2.485 0.082,0.023 0.156,0.035 0.222,0.035 0.083,0 0.172,0 0.274,0 h 1.562 c 0.313,0 0.614,0.082 0.891,0.246 0.301,0.168 0.547,0.402 0.746,0.711 l 1.563,1.172 c 0.379,0.332 0.672,0.746 0.867,1.242 0.215,0.496 0.324,1.074 0.324,1.738 v 6.672 c 0,0.899 -0.223,1.692 -0.672,2.375 -0.429,0.664 -0.992,0.996 -1.683,0.996 h -7.743 z" /></g><path
         id="path274"
         style="fill:#01373e;fill-opacity:1;fill-rule:nonzero;stroke:none"
         d="M 15.805,85.449 H 15.07 v -2.484 c 0,-0.203 -0.011,-0.391 -0.035,-0.563 -0.023,-0.179 -0.066,-0.316 -0.129,-0.414 -0.066,-0.109 -0.16,-0.191 -0.281,-0.242 -0.125,-0.055 -0.281,-0.082 -0.477,-0.082 -0.203,0 -0.41,0.047 -0.628,0.148 -0.219,0.098 -0.43,0.223 -0.629,0.379 v 3.258 h -0.735 v -6.078 h 0.735 v 2.199 c 0.226,-0.191 0.464,-0.34 0.711,-0.445 0.242,-0.109 0.496,-0.16 0.753,-0.16 0.469,0 0.829,0.14 1.079,0.426 0.246,0.281 0.371,0.691 0.371,1.226 z m 3.679,-0.039 c -0.14,0.035 -0.289,0.067 -0.453,0.09 -0.164,0.023 -0.308,0.035 -0.433,0.035 -0.446,0 -0.786,-0.121 -1.016,-0.359 -0.234,-0.242 -0.348,-0.625 -0.348,-1.153 v -2.32 h -0.496 v -0.617 h 0.496 v -1.254 h 0.735 v 1.254 h 1.515 v 0.617 h -1.515 v 1.988 c 0,0.227 0.004,0.407 0.015,0.539 0.008,0.125 0.047,0.247 0.11,0.36 0.054,0.101 0.133,0.18 0.234,0.23 0.102,0.047 0.254,0.071 0.461,0.071 0.117,0 0.242,-0.02 0.375,-0.051 0.129,-0.039 0.223,-0.067 0.281,-0.09 h 0.039 z m 3.153,0 c -0.141,0.035 -0.289,0.067 -0.453,0.09 -0.164,0.023 -0.309,0.035 -0.434,0.035 -0.445,0 -0.785,-0.121 -1.016,-0.359 -0.234,-0.242 -0.347,-0.625 -0.347,-1.153 v -2.32 h -0.496 v -0.617 h 0.496 v -1.254 h 0.734 v 1.254 h 1.516 v 0.617 h -1.516 v 1.988 c 0,0.227 0.004,0.407 0.016,0.539 0.008,0.125 0.047,0.247 0.109,0.36 0.055,0.101 0.133,0.18 0.234,0.23 0.102,0.047 0.254,0.071 0.461,0.071 0.118,0 0.243,-0.02 0.375,-0.051 0.129,-0.039 0.223,-0.067 0.282,-0.09 h 0.039 z m 4.726,-2.195 c 0,0.351 -0.051,0.676 -0.152,0.973 -0.102,0.289 -0.246,0.539 -0.43,0.742 -0.172,0.191 -0.375,0.34 -0.609,0.449 -0.234,0.101 -0.481,0.156 -0.738,0.156 -0.227,0 -0.434,-0.027 -0.618,-0.074 -0.183,-0.051 -0.371,-0.129 -0.558,-0.231 v 1.829 h -0.735 v -5.973 h 0.735 v 0.457 c 0.195,-0.164 0.414,-0.301 0.656,-0.41 0.242,-0.113 0.504,-0.168 0.781,-0.168 0.524,0 0.934,0.199 1.227,0.597 0.293,0.395 0.441,0.946 0.441,1.653 z m -0.758,0.019 c 0,-0.527 -0.089,-0.922 -0.269,-1.179 -0.18,-0.262 -0.457,-0.391 -0.828,-0.391 -0.211,0 -0.426,0.043 -0.637,0.137 -0.215,0.09 -0.418,0.211 -0.613,0.359 v 2.473 c 0.207,0.094 0.387,0.156 0.535,0.191 0.148,0.031 0.32,0.051 0.512,0.051 0.406,0 0.726,-0.141 0.957,-0.414 0.226,-0.277 0.343,-0.688 0.343,-1.227 z m 5.02,0.957 c 0,0.399 -0.168,0.723 -0.496,0.981 -0.328,0.254 -0.777,0.383 -1.348,0.383 -0.324,0 -0.621,-0.039 -0.89,-0.114 -0.27,-0.078 -0.496,-0.164 -0.676,-0.253 v -0.825 h 0.039 c 0.23,0.172 0.488,0.313 0.773,0.418 0.282,0.102 0.555,0.153 0.817,0.153 0.32,0 0.574,-0.055 0.758,-0.157 0.179,-0.105 0.273,-0.269 0.273,-0.492 0,-0.172 -0.051,-0.305 -0.148,-0.39 -0.102,-0.09 -0.289,-0.165 -0.571,-0.227 -0.105,-0.023 -0.242,-0.051 -0.41,-0.082 -0.168,-0.031 -0.32,-0.066 -0.457,-0.102 -0.383,-0.101 -0.656,-0.25 -0.816,-0.445 -0.161,-0.199 -0.239,-0.441 -0.239,-0.727 0,-0.179 0.036,-0.351 0.11,-0.507 0.074,-0.16 0.187,-0.301 0.34,-0.426 0.144,-0.125 0.328,-0.219 0.554,-0.289 0.227,-0.074 0.477,-0.11 0.758,-0.11 0.258,0 0.524,0.032 0.789,0.098 0.266,0.063 0.488,0.137 0.668,0.231 v 0.785 h -0.039 c -0.187,-0.141 -0.418,-0.254 -0.684,-0.348 -0.269,-0.098 -0.531,-0.144 -0.789,-0.144 -0.269,0 -0.496,0.05 -0.679,0.156 -0.188,0.101 -0.278,0.254 -0.278,0.457 0,0.18 0.055,0.312 0.168,0.406 0.11,0.09 0.286,0.164 0.532,0.223 0.132,0.031 0.285,0.062 0.453,0.094 0.168,0.031 0.308,0.058 0.422,0.085 0.339,0.079 0.601,0.211 0.789,0.403 0.183,0.191 0.277,0.445 0.277,0.765 z m 2.613,-1.992 h -0.933 v -1.113 h 0.933 z m 0,3.25 h -0.933 v -1.113 h 0.933 z m 4.707,-6.078 -2.8,7.266 h -0.676 l 2.789,-7.266 z m 3.633,0 -2.801,7.266 h -0.675 l 2.789,-7.266 z m 6.484,1.715 -1.136,4.363 h -0.68 l -1.121,-3.363 -1.113,3.363 h -0.676 l -1.148,-4.363 h 0.765 l 0.801,3.379 1.09,-3.379 h 0.605 l 1.117,3.379 0.758,-3.379 z m 6.547,0 -1.136,4.363 h -0.68 l -1.121,-3.363 -1.113,3.363 H 50.883 L 49.734,81.086 H 50.5 l 0.801,3.379 1.09,-3.379 h 0.605 l 1.117,3.379 0.758,-3.379 z m 6.547,0 -1.136,4.363 h -0.68 l -1.121,-3.363 -1.114,3.363 H 57.43 l -1.149,-4.363 h 0.766 l 0.801,3.379 1.09,-3.379 h 0.605 l 1.117,3.379 0.758,-3.379 z m 1.985,4.363 h -0.934 v -1.113 h 0.934 z m 5.55,-2.215 c 0,0.364 -0.054,0.692 -0.156,0.985 -0.101,0.289 -0.242,0.535 -0.414,0.734 -0.187,0.203 -0.391,0.359 -0.609,0.465 -0.223,0.102 -0.465,0.152 -0.731,0.152 -0.25,0 -0.465,-0.031 -0.648,-0.09 -0.188,-0.058 -0.367,-0.136 -0.547,-0.234 l -0.047,0.203 h -0.687 v -6.078 h 0.734 v 2.172 c 0.203,-0.172 0.422,-0.309 0.656,-0.414 0.231,-0.109 0.492,-0.164 0.781,-0.164 0.516,0 0.922,0.195 1.219,0.594 0.297,0.394 0.449,0.953 0.449,1.675 z m -0.757,0.02 c 0,-0.524 -0.086,-0.918 -0.258,-1.184 -0.172,-0.273 -0.449,-0.406 -0.832,-0.406 -0.215,0 -0.43,0.047 -0.649,0.141 -0.218,0.09 -0.422,0.207 -0.609,0.355 v 2.5 c 0.207,0.094 0.387,0.156 0.535,0.195 0.149,0.036 0.32,0.055 0.512,0.055 0.406,0 0.722,-0.133 0.953,-0.398 0.23,-0.27 0.348,-0.688 0.348,-1.258 z m 5.554,0.09 h -3.215 c 0,0.265 0.039,0.5 0.122,0.703 0.078,0.195 0.191,0.359 0.332,0.488 0.132,0.125 0.293,0.219 0.48,0.281 0.188,0.063 0.391,0.094 0.617,0.094 0.297,0 0.594,-0.058 0.895,-0.176 0.301,-0.121 0.515,-0.238 0.644,-0.351 h 0.039 v 0.801 c -0.25,0.101 -0.5,0.191 -0.757,0.261 -0.258,0.071 -0.532,0.106 -0.813,0.106 -0.727,0 -1.289,-0.196 -1.695,-0.586 -0.407,-0.395 -0.61,-0.953 -0.61,-1.672 0,-0.715 0.192,-1.281 0.582,-1.699 0.391,-0.422 0.903,-0.629 1.539,-0.629 0.586,0 1.04,0.172 1.36,0.515 0.32,0.344 0.48,0.832 0.48,1.465 z M 73.773,82.781 C 73.77,82.395 73.672,82.098 73.48,81.887 73.289,81.676 73,81.57 72.609,81.57 c -0.394,0 -0.707,0.114 -0.941,0.348 -0.234,0.23 -0.363,0.52 -0.395,0.863 z m 5.481,0.563 h -3.215 c 0,0.265 0.039,0.5 0.121,0.703 0.078,0.195 0.192,0.359 0.332,0.488 0.133,0.125 0.293,0.219 0.481,0.281 0.187,0.063 0.39,0.094 0.617,0.094 0.297,0 0.594,-0.058 0.894,-0.176 0.301,-0.121 0.516,-0.238 0.645,-0.351 h 0.039 v 0.801 c -0.25,0.101 -0.5,0.191 -0.758,0.261 -0.258,0.071 -0.531,0.106 -0.812,0.106 -0.727,0 -1.289,-0.196 -1.696,-0.586 -0.406,-0.395 -0.609,-0.953 -0.609,-1.672 0,-0.715 0.191,-1.281 0.582,-1.699 0.391,-0.422 0.902,-0.629 1.539,-0.629 0.586,0 1.039,0.172 1.359,0.515 0.321,0.344 0.481,0.832 0.481,1.465 z m -0.715,-0.563 c -0.004,-0.386 -0.101,-0.683 -0.293,-0.894 -0.191,-0.211 -0.48,-0.317 -0.871,-0.317 -0.395,0 -0.707,0.114 -0.941,0.348 -0.235,0.23 -0.364,0.52 -0.395,0.863 z m 4.551,-0.894 h -0.039 c -0.11,-0.028 -0.219,-0.047 -0.321,-0.055 -0.101,-0.016 -0.222,-0.02 -0.363,-0.02 -0.226,0 -0.445,0.051 -0.656,0.153 -0.211,0.097 -0.414,0.226 -0.609,0.387 v 3.097 h -0.735 v -4.363 h 0.735 v 0.644 c 0.289,-0.234 0.546,-0.402 0.769,-0.496 0.223,-0.101 0.449,-0.148 0.684,-0.148 0.125,0 0.218,0.004 0.277,0.012 0.055,0.004 0.141,0.015 0.258,0.035 z m 4.23,3.562 h -0.734 v -0.457 c -0.211,0.18 -0.434,0.324 -0.66,0.426 -0.231,0.102 -0.481,0.152 -0.746,0.152 -0.524,0 -0.938,-0.203 -1.242,-0.601 -0.305,-0.403 -0.458,-0.957 -0.458,-1.668 0,-0.371 0.051,-0.699 0.157,-0.989 0.105,-0.289 0.25,-0.535 0.429,-0.738 0.176,-0.199 0.383,-0.351 0.618,-0.453 0.234,-0.105 0.48,-0.156 0.734,-0.156 0.227,0 0.43,0.023 0.609,0.074 0.176,0.047 0.364,0.121 0.559,0.223 v -1.891 h 0.734 z m -0.734,-1.074 v -2.504 c -0.199,-0.09 -0.375,-0.152 -0.531,-0.183 -0.157,-0.036 -0.328,-0.051 -0.512,-0.051 -0.414,0 -0.734,0.14 -0.961,0.429 -0.23,0.286 -0.344,0.692 -0.344,1.219 0,0.516 0.086,0.91 0.266,1.184 0.176,0.265 0.461,0.402 0.851,0.402 0.207,0 0.418,-0.047 0.633,-0.137 0.211,-0.093 0.41,-0.214 0.598,-0.359 z m 4.902,-2.488 h -0.039 c -0.109,-0.028 -0.219,-0.047 -0.32,-0.055 -0.102,-0.016 -0.223,-0.02 -0.363,-0.02 -0.227,0 -0.446,0.051 -0.657,0.153 -0.211,0.097 -0.414,0.226 -0.609,0.387 v 3.097 H 88.766 V 81.086 H 89.5 v 0.644 c 0.289,-0.234 0.547,-0.402 0.77,-0.496 0.222,-0.101 0.449,-0.148 0.683,-0.148 0.125,0 0.219,0.004 0.277,0.012 0.055,0.004 0.141,0.015 0.258,0.035 z m 1.481,-1.532 h -0.828 v -0.761 h 0.828 z m -0.047,5.094 h -0.734 v -4.363 h 0.734 z m 5.226,-4.363 -1.765,4.363 h -0.738 l -1.754,-4.363 h 0.797 l 1.351,3.473 1.34,-3.473 z m 4.543,2.258 h -3.214 c 0,0.265 0.039,0.5 0.121,0.703 0.078,0.195 0.191,0.359 0.332,0.488 0.132,0.125 0.293,0.219 0.48,0.281 0.188,0.063 0.391,0.094 0.617,0.094 0.297,0 0.594,-0.058 0.895,-0.176 0.301,-0.121 0.516,-0.238 0.644,-0.351 h 0.039 v 0.801 c -0.25,0.101 -0.5,0.191 -0.757,0.261 -0.258,0.071 -0.532,0.106 -0.813,0.106 -0.726,0 -1.289,-0.196 -1.695,-0.586 -0.406,-0.395 -0.61,-0.953 -0.61,-1.672 0,-0.715 0.192,-1.281 0.582,-1.699 0.391,-0.422 0.903,-0.629 1.54,-0.629 0.586,0 1.039,0.172 1.359,0.515 0.32,0.344 0.48,0.832 0.48,1.465 z m -0.714,-0.563 c -0.004,-0.386 -0.102,-0.683 -0.293,-0.894 -0.192,-0.211 -0.481,-0.317 -0.872,-0.317 -0.394,0 -0.707,0.114 -0.941,0.348 -0.234,0.23 -0.363,0.52 -0.394,0.863 z m 5.476,2.668 h -0.734 v -2.484 c 0,-0.203 -0.012,-0.391 -0.035,-0.563 -0.024,-0.179 -0.067,-0.316 -0.129,-0.414 -0.067,-0.109 -0.16,-0.191 -0.282,-0.242 -0.125,-0.055 -0.281,-0.082 -0.476,-0.082 -0.203,0 -0.41,0.047 -0.629,0.148 -0.219,0.098 -0.43,0.223 -0.629,0.379 v 3.258 h -0.734 v -4.363 h 0.734 v 0.484 c 0.227,-0.191 0.465,-0.34 0.711,-0.445 0.242,-0.109 0.496,-0.16 0.754,-0.16 0.469,0 0.828,0.14 1.078,0.426 0.246,0.281 0.371,0.691 0.371,1.226 z m 2.613,0 h -0.933 v -1.113 h 0.933 z m 5.25,0 h -0.734 v -0.457 c -0.211,0.18 -0.434,0.324 -0.66,0.426 -0.231,0.102 -0.481,0.152 -0.746,0.152 -0.524,0 -0.938,-0.203 -1.242,-0.601 -0.305,-0.403 -0.457,-0.957 -0.457,-1.668 0,-0.371 0.05,-0.699 0.156,-0.989 0.105,-0.289 0.25,-0.535 0.429,-0.738 0.176,-0.199 0.383,-0.351 0.618,-0.453 0.234,-0.105 0.48,-0.156 0.734,-0.156 0.227,0 0.43,0.023 0.609,0.074 0.176,0.047 0.364,0.121 0.559,0.223 v -1.891 h 0.734 z m -0.734,-1.074 v -2.504 c -0.199,-0.09 -0.375,-0.152 -0.531,-0.183 -0.156,-0.036 -0.328,-0.051 -0.512,-0.051 -0.414,0 -0.734,0.14 -0.961,0.429 -0.23,0.286 -0.344,0.692 -0.344,1.219 0,0.516 0.086,0.91 0.266,1.184 0.176,0.265 0.461,0.402 0.852,0.402 0.207,0 0.418,-0.047 0.632,-0.137 0.211,-0.093 0.411,-0.214 0.598,-0.359 z m 5.832,-1.031 h -3.215 c 0,0.265 0.039,0.5 0.121,0.703 0.078,0.195 0.192,0.359 0.332,0.488 0.133,0.125 0.293,0.219 0.481,0.281 0.187,0.063 0.39,0.094 0.617,0.094 0.297,0 0.594,-0.058 0.895,-0.176 0.3,-0.121 0.515,-0.238 0.644,-0.351 h 0.039 v 0.801 c -0.25,0.101 -0.5,0.191 -0.758,0.261 -0.258,0.071 -0.531,0.106 -0.812,0.106 -0.727,0 -1.289,-0.196 -1.696,-0.586 -0.406,-0.395 -0.609,-0.953 -0.609,-1.672 0,-0.715 0.192,-1.281 0.582,-1.699 0.391,-0.422 0.903,-0.629 1.539,-0.629 0.586,0 1.039,0.172 1.36,0.515 0.32,0.344 0.48,0.832 0.48,1.465 z m -0.715,-0.563 c -0.004,-0.386 -0.101,-0.683 -0.293,-0.894 -0.191,-0.211 -0.48,-0.317 -0.871,-0.317 -0.394,0 -0.707,0.114 -0.941,0.348 -0.235,0.23 -0.364,0.52 -0.395,0.863 z m 5.602,-1.695 -1.766,4.363 h -0.738 l -1.754,-4.363 h 0.797 l 1.351,3.473 1.34,-3.473 z" /><path
         id="path276"
         style="fill:#01373e;fill-opacity:1;fill-rule:nonzero;stroke:none"
         d="m 217.324,82.715 c 0,0.359 -0.054,0.711 -0.16,1.051 -0.105,0.336 -0.254,0.644 -0.449,0.925 h -1.719 l -0.105,-0.453 c -0.192,0.157 -0.379,0.274 -0.555,0.36 -0.176,0.082 -0.379,0.125 -0.609,0.125 -0.438,0 -0.789,-0.168 -1.051,-0.496 -0.262,-0.332 -0.391,-0.793 -0.391,-1.387 0,-0.594 0.16,-1.063 0.481,-1.414 0.32,-0.352 0.703,-0.528 1.148,-0.528 0.191,0 0.359,0.02 0.504,0.067 0.144,0.039 0.305,0.105 0.473,0.191 v -0.187 h 0.621 v 3.289 h 0.949 c 0.109,-0.196 0.191,-0.442 0.246,-0.731 0.059,-0.297 0.086,-0.558 0.086,-0.789 0,-0.429 -0.059,-0.816 -0.18,-1.164 -0.117,-0.351 -0.289,-0.648 -0.519,-0.898 -0.231,-0.25 -0.512,-0.442 -0.852,-0.574 -0.34,-0.137 -0.722,-0.204 -1.152,-0.204 -0.418,0 -0.797,0.075 -1.145,0.227 -0.343,0.148 -0.64,0.352 -0.886,0.609 -0.25,0.254 -0.446,0.559 -0.59,0.918 -0.141,0.352 -0.211,0.731 -0.211,1.133 0,0.43 0.066,0.82 0.203,1.18 0.137,0.351 0.328,0.656 0.574,0.91 0.258,0.262 0.559,0.461 0.906,0.594 0.348,0.133 0.723,0.203 1.133,0.203 0.223,0 0.453,-0.016 0.692,-0.043 0.238,-0.031 0.468,-0.074 0.687,-0.137 v 0.555 c -0.254,0.055 -0.488,0.09 -0.707,0.109 -0.219,0.02 -0.445,0.032 -0.676,0.032 -0.484,0 -0.933,-0.086 -1.347,-0.25 -0.414,-0.165 -0.77,-0.395 -1.067,-0.692 -0.301,-0.301 -0.531,-0.66 -0.699,-1.078 -0.168,-0.422 -0.25,-0.883 -0.25,-1.391 0,-0.484 0.086,-0.929 0.262,-1.343 0.176,-0.418 0.414,-0.778 0.715,-1.082 0.3,-0.305 0.66,-0.547 1.074,-0.719 0.414,-0.176 0.855,-0.262 1.328,-0.262 0.512,0 0.965,0.078 1.367,0.242 0.402,0.16 0.738,0.387 1.016,0.68 0.277,0.289 0.488,0.641 0.633,1.055 0.148,0.406 0.222,0.863 0.222,1.367 z m -2.441,0.996 v -2.023 c -0.164,-0.079 -0.313,-0.129 -0.442,-0.161 -0.129,-0.035 -0.269,-0.05 -0.418,-0.05 -0.335,0 -0.597,0.117 -0.789,0.351 -0.191,0.234 -0.285,0.567 -0.285,1 0,0.422 0.074,0.746 0.227,0.965 0.152,0.215 0.386,0.324 0.707,0.324 0.176,0 0.347,-0.043 0.523,-0.121 0.176,-0.082 0.332,-0.176 0.477,-0.285 z m 8.305,-0.195 c 0,0.289 -0.055,0.543 -0.165,0.765 -0.109,0.219 -0.257,0.403 -0.441,0.547 -0.219,0.172 -0.461,0.293 -0.723,0.367 -0.261,0.071 -0.593,0.11 -0.996,0.11 h -2.062 v -5.817 h 1.722 c 0.426,0 0.743,0.016 0.954,0.047 0.211,0.031 0.414,0.094 0.605,0.195 0.215,0.11 0.367,0.254 0.465,0.434 0.098,0.172 0.144,0.383 0.144,0.629 0,0.273 -0.07,0.512 -0.211,0.707 -0.14,0.191 -0.328,0.348 -0.562,0.465 v 0.031 c 0.394,0.078 0.703,0.254 0.93,0.52 0.226,0.261 0.34,0.593 0.34,1 z m -1.301,-2.621 c 0,-0.141 -0.024,-0.262 -0.071,-0.356 -0.046,-0.098 -0.121,-0.176 -0.226,-0.234 -0.121,-0.071 -0.27,-0.114 -0.445,-0.129 -0.176,-0.02 -0.391,-0.028 -0.649,-0.028 h -0.922 v 1.68 h 1 c 0.242,0 0.434,-0.012 0.578,-0.035 0.145,-0.027 0.278,-0.078 0.399,-0.156 0.121,-0.078 0.207,-0.18 0.258,-0.301 0.05,-0.125 0.078,-0.274 0.078,-0.441 z m 0.496,2.652 c 0,-0.235 -0.035,-0.422 -0.106,-0.559 -0.07,-0.14 -0.199,-0.258 -0.382,-0.351 -0.125,-0.067 -0.278,-0.11 -0.457,-0.125 -0.176,-0.024 -0.395,-0.032 -0.649,-0.032 h -1.215 v 2.165 h 1.024 c 0.34,0 0.617,-0.02 0.832,-0.051 0.215,-0.039 0.394,-0.102 0.531,-0.196 0.144,-0.101 0.254,-0.218 0.32,-0.347 0.067,-0.133 0.102,-0.301 0.102,-0.504 z m 5.496,-0.348 h -3.215 c 0,0.266 0.039,0.5 0.121,0.703 0.082,0.196 0.192,0.36 0.332,0.489 0.137,0.125 0.297,0.218 0.481,0.281 0.187,0.062 0.394,0.094 0.617,0.094 0.297,0 0.594,-0.059 0.894,-0.176 0.301,-0.121 0.516,-0.238 0.645,-0.352 h 0.039 v 0.801 c -0.246,0.102 -0.5,0.191 -0.758,0.262 -0.258,0.07 -0.527,0.105 -0.812,0.105 -0.723,0 -1.289,-0.195 -1.696,-0.586 -0.406,-0.394 -0.609,-0.953 -0.609,-1.672 0,-0.714 0.195,-1.281 0.582,-1.699 0.391,-0.422 0.902,-0.629 1.539,-0.629 0.59,0 1.043,0.172 1.359,0.516 0.321,0.344 0.481,0.832 0.481,1.465 z m -0.715,-0.562 c -0.004,-0.387 -0.102,-0.684 -0.293,-0.895 -0.191,-0.211 -0.48,-0.316 -0.871,-0.316 -0.395,0 -0.707,0.113 -0.941,0.347 -0.231,0.231 -0.364,0.52 -0.395,0.864 z m 5.481,0.562 h -3.215 c 0,0.266 0.039,0.5 0.121,0.703 0.082,0.196 0.191,0.36 0.332,0.489 0.137,0.125 0.297,0.218 0.48,0.281 0.188,0.062 0.395,0.094 0.617,0.094 0.297,0 0.594,-0.059 0.895,-0.176 0.301,-0.121 0.516,-0.238 0.645,-0.352 h 0.039 v 0.801 c -0.247,0.102 -0.5,0.191 -0.758,0.262 -0.258,0.07 -0.528,0.105 -0.813,0.105 -0.722,0 -1.289,-0.195 -1.695,-0.586 -0.406,-0.394 -0.609,-0.953 -0.609,-1.672 0,-0.714 0.195,-1.281 0.582,-1.699 0.39,-0.422 0.902,-0.629 1.539,-0.629 0.59,0 1.043,0.172 1.359,0.516 0.32,0.344 0.481,0.832 0.481,1.465 z m -0.715,-0.562 c -0.004,-0.387 -0.102,-0.684 -0.293,-0.895 -0.192,-0.211 -0.481,-0.316 -0.871,-0.316 -0.395,0 -0.707,0.113 -0.942,0.347 -0.23,0.231 -0.363,0.52 -0.394,0.864 z m 4.55,-0.895 h -0.039 c -0.109,-0.027 -0.214,-0.047 -0.32,-0.054 -0.101,-0.016 -0.223,-0.02 -0.363,-0.02 -0.227,0 -0.446,0.051 -0.656,0.152 -0.211,0.098 -0.414,0.227 -0.61,0.387 v 3.098 h -0.734 v -4.364 h 0.734 v 0.645 c 0.293,-0.234 0.547,-0.402 0.77,-0.496 0.222,-0.102 0.453,-0.149 0.683,-0.149 0.129,0 0.219,0.004 0.278,0.012 0.058,0.004 0.144,0.016 0.257,0.035 z m 5.665,0.66 c 0,0.528 -0.118,1.008 -0.348,1.438 -0.231,0.43 -0.535,0.762 -0.918,1 -0.266,0.164 -0.563,0.281 -0.891,0.355 -0.324,0.071 -0.754,0.11 -1.289,0.11 h -1.469 v -5.817 h 1.454 c 0.566,0 1.019,0.039 1.351,0.125 0.336,0.078 0.621,0.192 0.852,0.336 0.394,0.246 0.703,0.574 0.925,0.989 0.223,0.41 0.333,0.898 0.333,1.464 z m -0.809,-0.011 c 0,-0.457 -0.078,-0.84 -0.238,-1.153 -0.16,-0.312 -0.395,-0.558 -0.711,-0.738 -0.231,-0.133 -0.473,-0.223 -0.731,-0.27 -0.258,-0.054 -0.566,-0.078 -0.926,-0.078 h -0.726 v 4.489 h 0.726 c 0.372,0 0.696,-0.028 0.973,-0.082 0.277,-0.055 0.535,-0.157 0.766,-0.305 0.289,-0.188 0.504,-0.43 0.648,-0.731 0.145,-0.304 0.219,-0.679 0.219,-1.132 z m 4.723,-0.649 h -0.039 c -0.11,-0.027 -0.215,-0.047 -0.321,-0.054 -0.101,-0.016 -0.222,-0.02 -0.363,-0.02 -0.227,0 -0.445,0.051 -0.656,0.152 -0.211,0.098 -0.414,0.227 -0.61,0.387 v 3.098 h -0.734 v -4.364 h 0.734 v 0.645 c 0.293,-0.234 0.547,-0.402 0.77,-0.496 0.222,-0.102 0.453,-0.149 0.683,-0.149 0.129,0 0.219,0.004 0.278,0.012 0.058,0.004 0.144,0.016 0.258,0.035 z m 1.48,-1.531 h -0.828 v -0.762 h 0.828 z m -0.047,5.094 h -0.734 v -4.364 h 0.734 z m 5.227,-4.364 -1.766,4.364 h -0.738 l -1.754,-4.364 h 0.797 l 1.351,3.473 1.34,-3.473 z m 4.543,2.258 h -3.215 c 0,0.266 0.039,0.5 0.121,0.703 0.082,0.196 0.191,0.36 0.332,0.489 0.137,0.125 0.297,0.218 0.48,0.281 0.188,0.062 0.395,0.094 0.618,0.094 0.297,0 0.593,-0.059 0.894,-0.176 0.301,-0.121 0.516,-0.238 0.645,-0.352 h 0.039 v 0.801 c -0.246,0.102 -0.5,0.191 -0.758,0.262 -0.258,0.07 -0.527,0.105 -0.813,0.105 -0.722,0 -1.289,-0.195 -1.695,-0.586 -0.406,-0.394 -0.609,-0.953 -0.609,-1.672 0,-0.714 0.195,-1.281 0.582,-1.699 0.39,-0.422 0.902,-0.629 1.539,-0.629 0.59,0 1.043,0.172 1.359,0.516 0.321,0.344 0.481,0.832 0.481,1.465 z m -0.715,-0.562 c -0.004,-0.387 -0.102,-0.684 -0.293,-0.895 -0.192,-0.211 -0.481,-0.316 -0.871,-0.316 -0.395,0 -0.707,0.113 -0.942,0.347 -0.23,0.231 -0.363,0.52 -0.394,0.864 z m 5.476,2.668 h -0.734 V 82.82 c 0,-0.203 -0.012,-0.39 -0.035,-0.562 -0.024,-0.18 -0.066,-0.317 -0.129,-0.414 -0.066,-0.11 -0.16,-0.192 -0.281,-0.242 -0.121,-0.055 -0.282,-0.082 -0.477,-0.082 -0.199,0 -0.41,0.046 -0.629,0.148 -0.218,0.098 -0.429,0.223 -0.629,0.379 v 3.258 h -0.734 v -4.364 h 0.734 v 0.485 c 0.231,-0.192 0.465,-0.34 0.711,-0.446 0.246,-0.109 0.496,-0.16 0.754,-0.16 0.473,0 0.832,0.141 1.078,0.426 0.246,0.281 0.371,0.692 0.371,1.227 z m 6.387,-2.903 c 0,0.528 -0.117,1.008 -0.348,1.438 -0.23,0.43 -0.535,0.762 -0.917,1 -0.266,0.164 -0.563,0.281 -0.891,0.355 -0.324,0.071 -0.754,0.11 -1.289,0.11 h -1.469 v -5.817 h 1.453 c 0.567,0 1.02,0.039 1.352,0.125 0.336,0.078 0.621,0.192 0.851,0.336 0.395,0.246 0.703,0.574 0.926,0.989 0.223,0.41 0.332,0.898 0.332,1.464 z m -0.808,-0.011 c 0,-0.457 -0.079,-0.84 -0.239,-1.153 -0.16,-0.312 -0.394,-0.558 -0.711,-0.738 -0.23,-0.133 -0.472,-0.223 -0.73,-0.27 -0.258,-0.054 -0.567,-0.078 -0.926,-0.078 h -0.726 v 4.489 h 0.726 c 0.371,0 0.695,-0.028 0.973,-0.082 0.277,-0.055 0.535,-0.157 0.765,-0.305 0.289,-0.188 0.504,-0.43 0.649,-0.731 0.144,-0.304 0.219,-0.679 0.219,-1.132 z m 5.652,0.808 h -3.215 c 0,0.266 0.039,0.5 0.121,0.703 0.082,0.196 0.192,0.36 0.332,0.489 0.137,0.125 0.297,0.218 0.481,0.281 0.187,0.062 0.394,0.094 0.617,0.094 0.297,0 0.594,-0.059 0.894,-0.176 0.301,-0.121 0.516,-0.238 0.645,-0.352 h 0.039 v 0.801 c -0.246,0.102 -0.5,0.191 -0.758,0.262 -0.258,0.07 -0.527,0.105 -0.812,0.105 -0.723,0 -1.289,-0.195 -1.696,-0.586 -0.406,-0.394 -0.609,-0.953 -0.609,-1.672 0,-0.714 0.195,-1.281 0.582,-1.699 0.391,-0.422 0.902,-0.629 1.539,-0.629 0.59,0 1.043,0.172 1.359,0.516 0.321,0.344 0.481,0.832 0.481,1.465 z m -0.715,-0.562 c -0.004,-0.387 -0.101,-0.684 -0.293,-0.895 -0.191,-0.211 -0.48,-0.316 -0.871,-0.316 -0.395,0 -0.707,0.113 -0.941,0.347 -0.231,0.231 -0.364,0.52 -0.395,0.864 z m 5.602,-1.696 -1.766,4.364 h -0.738 l -1.754,-4.364 h 0.797 l 1.351,3.473 1.34,-3.473 z m 4.078,3.106 c 0,0.398 -0.164,0.723 -0.496,0.98 -0.328,0.254 -0.778,0.383 -1.348,0.383 -0.324,0 -0.621,-0.039 -0.891,-0.113 -0.269,-0.078 -0.492,-0.164 -0.675,-0.254 v -0.824 h 0.039 c 0.23,0.172 0.488,0.312 0.773,0.418 0.285,0.101 0.555,0.152 0.817,0.152 0.324,0 0.574,-0.055 0.757,-0.156 0.184,-0.106 0.274,-0.27 0.274,-0.492 0,-0.172 -0.051,-0.305 -0.149,-0.391 -0.097,-0.09 -0.289,-0.164 -0.57,-0.227 -0.105,-0.023 -0.242,-0.05 -0.41,-0.082 -0.168,-0.031 -0.32,-0.066 -0.457,-0.101 -0.383,-0.102 -0.656,-0.25 -0.817,-0.445 -0.16,-0.2 -0.238,-0.442 -0.238,-0.727 0,-0.18 0.035,-0.352 0.11,-0.508 0.074,-0.16 0.187,-0.301 0.339,-0.426 0.145,-0.125 0.332,-0.218 0.555,-0.289 0.227,-0.074 0.48,-0.109 0.758,-0.109 0.262,0 0.523,0.031 0.789,0.098 0.269,0.062 0.492,0.136 0.668,0.23 v 0.785 h -0.039 c -0.188,-0.14 -0.414,-0.254 -0.684,-0.347 -0.269,-0.098 -0.531,-0.145 -0.789,-0.145 -0.269,0 -0.496,0.051 -0.68,0.156 -0.183,0.102 -0.277,0.254 -0.277,0.457 0,0.18 0.055,0.313 0.168,0.407 0.109,0.089 0.285,0.164 0.531,0.222 0.137,0.031 0.285,0.063 0.453,0.094 0.168,0.031 0.309,0.059 0.422,0.086 0.34,0.078 0.606,0.211 0.789,0.402 0.184,0.192 0.278,0.446 0.278,0.766 z" /><g
         id="g278"><path
           id="path280"
           style="fill:none;stroke:#000000;stroke-width:0.75;stroke-linecap:butt;stroke-linejoin:miter;stroke-miterlimit:4;stroke-dasharray:none;stroke-opacity:1"
           d="m 250.402,42.5 c 1,-1.668 1.996,-3.34 2.996,-5.008 -1.746,0.106 -3.488,0.215 -5.867,-0.738 -2.375,-0.953 -5.386,-2.965 -5.277,-6.195 0.109,-3.227 3.75,-8.243 9.703,-9.813 5.957,-1.574 17.723,-0.629 23.719,1.672 5.996,2.301 7.929,6.957 7.019,9.336 -0.906,2.375 -5.972,5.535 -10.468,6.543 -4.5,1.004 -10.274,0.637 -15.782,0.289 z" /></g><path
         id="path282"
         style="fill:#000000;fill-opacity:1;fill-rule:nonzero;stroke:none"
         d="m 251.113,28.504 h -1.301 l -0.359,1.469 h 1.203 V 30.5 h -1.34 l -0.406,1.645 h -0.504 l 0.406,-1.645 h -1.054 l -0.406,1.645 h -0.504 l 0.406,-1.645 h -1.164 v -0.527 h 1.301 l 0.359,-1.469 h -1.203 v -0.527 h 1.34 l 0.41,-1.649 h 0.504 l -0.41,1.649 h 1.054 l 0.41,-1.649 h 0.504 l -0.41,1.649 h 1.164 z m -1.793,-0.008 h -1.07 l -0.367,1.484 h 1.07 z m 7.828,3.227 c -0.14,0.062 -0.273,0.121 -0.39,0.175 -0.113,0.055 -0.266,0.11 -0.453,0.172 -0.157,0.047 -0.332,0.09 -0.52,0.125 -0.183,0.035 -0.387,0.055 -0.613,0.055 -0.422,0 -0.805,-0.059 -1.152,-0.176 -0.344,-0.121 -0.641,-0.308 -0.899,-0.558 -0.25,-0.25 -0.445,-0.563 -0.586,-0.942 -0.14,-0.383 -0.211,-0.828 -0.211,-1.332 0,-0.48 0.071,-0.91 0.203,-1.285 0.137,-0.379 0.332,-0.699 0.586,-0.957 0.25,-0.254 0.547,-0.445 0.895,-0.578 0.351,-0.133 0.742,-0.199 1.168,-0.199 0.312,0 0.625,0.035 0.933,0.113 0.313,0.074 0.661,0.207 1.039,0.398 v 0.918 h -0.058 c -0.32,-0.269 -0.637,-0.464 -0.953,-0.586 -0.313,-0.125 -0.653,-0.183 -1.012,-0.183 -0.293,0 -0.559,0.047 -0.797,0.144 -0.234,0.094 -0.441,0.239 -0.629,0.442 -0.179,0.195 -0.32,0.441 -0.422,0.742 -0.097,0.297 -0.148,0.641 -0.148,1.031 0,0.406 0.055,0.758 0.164,1.055 0.113,0.293 0.258,0.531 0.43,0.719 0.183,0.191 0.394,0.336 0.636,0.429 0.246,0.09 0.504,0.137 0.774,0.137 0.375,0 0.722,-0.066 1.047,-0.191 0.328,-0.129 0.632,-0.321 0.914,-0.575 h 0.054 z m 4.684,0.422 h -0.734 V 29.66 c 0,-0.203 -0.012,-0.39 -0.036,-0.562 -0.023,-0.18 -0.066,-0.317 -0.128,-0.414 -0.063,-0.11 -0.157,-0.192 -0.282,-0.243 -0.121,-0.054 -0.281,-0.082 -0.476,-0.082 -0.199,0 -0.41,0.047 -0.629,0.149 -0.219,0.097 -0.426,0.222 -0.629,0.379 v 3.258 h -0.734 v -6.079 h 0.734 v 2.2 c 0.23,-0.192 0.469,-0.34 0.711,-0.446 0.246,-0.109 0.496,-0.16 0.754,-0.16 0.472,0 0.832,0.141 1.078,0.426 0.25,0.281 0.371,0.691 0.371,1.226 z m 5.066,-2.106 h -3.214 c 0,0.266 0.043,0.5 0.121,0.703 0.082,0.196 0.191,0.36 0.332,0.488 0.136,0.125 0.297,0.219 0.48,0.282 0.188,0.062 0.395,0.093 0.617,0.093 0.297,0 0.598,-0.058 0.895,-0.175 0.305,-0.121 0.519,-0.239 0.644,-0.352 h 0.039 v 0.801 c -0.246,0.101 -0.5,0.191 -0.757,0.262 -0.258,0.07 -0.528,0.105 -0.813,0.105 -0.722,0 -1.289,-0.195 -1.695,-0.586 -0.406,-0.394 -0.609,-0.953 -0.609,-1.672 0,-0.715 0.195,-1.281 0.582,-1.699 0.39,-0.422 0.906,-0.629 1.539,-0.629 0.589,0 1.043,0.172 1.359,0.516 0.32,0.344 0.48,0.832 0.48,1.465 z m -0.714,-0.562 c 0,-0.387 -0.098,-0.684 -0.293,-0.895 -0.188,-0.211 -0.481,-0.316 -0.871,-0.316 -0.391,0 -0.708,0.113 -0.942,0.347 -0.23,0.231 -0.363,0.52 -0.394,0.864 z m 5.48,0.562 h -3.215 c 0,0.266 0.043,0.5 0.121,0.703 0.082,0.196 0.192,0.36 0.332,0.488 0.137,0.125 0.297,0.219 0.481,0.282 0.187,0.062 0.394,0.093 0.617,0.093 0.297,0 0.598,-0.058 0.895,-0.175 0.304,-0.121 0.519,-0.239 0.644,-0.352 h 0.039 v 0.801 c -0.246,0.101 -0.5,0.191 -0.758,0.262 -0.258,0.07 -0.527,0.105 -0.812,0.105 -0.723,0 -1.289,-0.195 -1.696,-0.586 -0.406,-0.394 -0.609,-0.953 -0.609,-1.672 0,-0.715 0.195,-1.281 0.582,-1.699 0.391,-0.422 0.906,-0.629 1.539,-0.629 0.59,0 1.043,0.172 1.36,0.516 0.32,0.344 0.48,0.832 0.48,1.465 z m -0.715,-0.562 c 0,-0.387 -0.097,-0.684 -0.293,-0.895 -0.187,-0.211 -0.48,-0.316 -0.871,-0.316 -0.39,0 -0.707,0.113 -0.941,0.347 -0.231,0.231 -0.364,0.52 -0.395,0.864 z m 4.551,-0.895 h -0.039 c -0.109,-0.027 -0.215,-0.047 -0.32,-0.055 -0.102,-0.015 -0.223,-0.019 -0.364,-0.019 -0.226,0 -0.445,0.051 -0.656,0.152 -0.211,0.098 -0.414,0.227 -0.609,0.387 v 3.098 h -0.735 v -4.364 h 0.735 v 0.645 c 0.293,-0.235 0.55,-0.403 0.769,-0.496 0.227,-0.102 0.453,-0.149 0.684,-0.149 0.129,0 0.223,0.004 0.277,0.012 0.059,0.004 0.145,0.016 0.258,0.035 z m 3.809,2.305 c 0,0.398 -0.164,0.722 -0.497,0.98 -0.328,0.254 -0.777,0.383 -1.347,0.383 -0.32,0 -0.617,-0.039 -0.891,-0.113 -0.265,-0.078 -0.492,-0.164 -0.676,-0.254 v -0.824 h 0.04 c 0.234,0.171 0.492,0.312 0.773,0.418 0.285,0.101 0.559,0.152 0.816,0.152 0.325,0 0.578,-0.055 0.758,-0.156 0.184,-0.106 0.274,-0.27 0.274,-0.493 0,-0.171 -0.047,-0.304 -0.149,-0.39 -0.098,-0.09 -0.289,-0.164 -0.57,-0.227 -0.102,-0.023 -0.238,-0.051 -0.41,-0.082 -0.164,-0.031 -0.317,-0.066 -0.457,-0.101 -0.383,-0.102 -0.653,-0.25 -0.817,-0.446 -0.156,-0.199 -0.238,-0.441 -0.238,-0.726 0,-0.18 0.039,-0.352 0.109,-0.508 0.078,-0.16 0.192,-0.301 0.34,-0.426 0.149,-0.125 0.332,-0.219 0.555,-0.289 0.226,-0.074 0.48,-0.109 0.758,-0.109 0.261,0 0.523,0.031 0.789,0.097 0.269,0.063 0.492,0.137 0.668,0.231 v 0.785 h -0.039 c -0.188,-0.141 -0.414,-0.254 -0.684,-0.348 -0.266,-0.097 -0.531,-0.144 -0.789,-0.144 -0.266,0 -0.492,0.051 -0.68,0.156 -0.183,0.102 -0.277,0.254 -0.277,0.457 0,0.18 0.059,0.313 0.168,0.406 0.109,0.09 0.289,0.164 0.531,0.223 0.137,0.031 0.289,0.063 0.453,0.094 0.172,0.031 0.313,0.058 0.422,0.086 0.344,0.078 0.606,0.211 0.789,0.402 0.188,0.191 0.278,0.445 0.278,0.766 z" /></g></g></svg>